<?xml version="1.0" encoding="UTF-8"?>
<svg version="1.1" xmlns="http://www.w3.org/2000/svg" width="279" height="360">
<path d="M0 0 C0.7523291 -0.01877197 1.5046582 -0.03754395 2.27978516 -0.05688477 C9.3748606 0.02474825 14.61736039 2.29253016 19.6875 7.25 C21.45824487 9.88082095 22.46656827 11.79227611 23.51171875 14.703125 C23.89976685 15.77288574 23.89976685 15.77288574 24.2956543 16.86425781 C24.48683838 17.40405273 24.67802246 17.94384766 24.875 18.5 C25.42849121 18.32871582 25.98198242 18.15743164 26.55224609 17.98095703 C29.11662996 17.19056109 31.68327548 16.40775996 34.25 15.625 C35.12011719 15.35558594 35.99023438 15.08617187 36.88671875 14.80859375 C66.82889331 5.71504444 97.96361231 8.33380505 125.75 22.8125 C136.55461103 28.6644829 145.87430723 36.15844887 154.875 44.5 C155.555625 43.778125 156.23625 43.05625 156.9375 42.3125 C163.11254939 36.18963412 168.82673701 32.91379205 177.6875 32.1875 C188.83004715 32.59463153 197.56686865 37.9661828 205.171875 45.89453125 C214.41189313 56.92350026 219.48042614 69.45964299 219.375 83.875 C219.36927979 84.79039551 219.36355957 85.70579102 219.35766602 86.64892578 C219.11313041 95.94786569 216.93402848 103.47035987 210.625 110.5 C206.73458884 113.99709486 201.25735167 117.5 195.875 117.5 C196.184375 118.510625 196.49375 119.52125 196.8125 120.5625 C202.87666931 140.37211973 199.99752683 165.20509646 190.875 183.5 C184.40294233 195.6647576 175.35222268 204.17603201 163.875 211.5 C164.08592285 212.0261792 164.2968457 212.5523584 164.51416016 213.09448242 C177.40141448 245.47344669 189.36911742 282.86443321 175.109375 316.7578125 C168.99944169 330.68538626 159.13255482 351.06385839 144.59375 357.51171875 C143.8615625 357.73472656 143.129375 357.95773437 142.375 358.1875 C141.6428125 358.41824219 140.910625 358.64898437 140.15625 358.88671875 C133.00081827 360.81035365 126.06317706 360.72065867 118.6875 360.75 C117.41068359 360.770625 116.13386719 360.79125 114.81835938 360.8125 C106.01585375 360.84870568 97.42504852 360.58043601 90.25 354.9375 C87.875 352.5 87.875 352.5 87.875 350.5 C85.94974487 350.50785522 85.94974487 350.50785522 83.9855957 350.51586914 C79.11548592 350.53429355 74.24537905 350.54556528 69.37524414 350.55493164 C67.28767373 350.55988796 65.20010664 350.56665497 63.11254883 350.57543945 C51.36205146 350.62356242 39.66625865 350.56758465 27.9400177 349.72621155 C20.6997049 349.27324573 14.04877949 350.41160139 6.96484375 351.7890625 C-3.49240721 353.74446359 -16.16492548 353.70120608 -25.5625 348.1875 C-31.32661995 344.14085253 -34.31224081 339.28927528 -36.125 332.5 C-36.60387074 328.48901364 -36.6838177 324.49760512 -36.7421875 320.4609375 C-36.76725372 319.30365143 -36.79231995 318.14636536 -36.81814575 316.95401001 C-36.86699566 314.50495331 -36.90858103 312.05574226 -36.94335938 309.60644531 C-36.99909418 305.93467512 -37.08771424 302.26476854 -37.1796875 298.59375 C-37.52508011 281.47742615 -37.02637535 264.54447716 -32 248.0625 C-30.92154701 244.1389783 -30.92154701 244.1389783 -32.25 240.515625 C-33.98825093 238.7663388 -33.98825093 238.7663388 -36.015625 237.21484375 C-44.45574188 230.35334132 -49.64446958 218.09032472 -51.125 207.5 C-51.31526548 204.16580589 -51.36285418 200.83921081 -51.375 197.5 C-51.37894775 196.56607422 -51.38289551 195.63214844 -51.38696289 194.66992188 C-51.33195811 188.10563982 -50.58913141 182.39472785 -48.68359375 176.09375 C-47.84446354 172.19736917 -48.47663375 169.66905422 -50.39453125 166.2109375 C-50.90371094 165.44007813 -51.41289063 164.66921875 -51.9375 163.875 C-61.3907747 148.67249813 -62.55253876 129.41591966 -59.4765625 112.015625 C-54.76691354 93.25753597 -44.93402569 76.60269952 -33.125 61.5 C-33.52332031 61.05269531 -33.92164062 60.60539062 -34.33203125 60.14453125 C-40.51125267 53.09330291 -43.54749241 47.75702922 -43.39453125 38.2734375 C-42.34376869 27.46124304 -36.22563349 18.08775988 -28.2890625 10.94921875 C-19.08017069 3.71704279 -11.66062938 0.2098771 0 0 Z " fill="#070707" transform="translate(60.125,-0.5)"/>
<path d="M0 0 C0.64356445 0.19835449 1.28712891 0.39670898 1.95019531 0.60107422 C18.58298387 5.97021012 33.26485242 16.23836604 46 28 C46.61617187 28.51304688 47.23234375 29.02609375 47.8671875 29.5546875 C49 31 49 31 49.07421875 32.9453125 C48.88279297 34.02425781 48.88279297 34.02425781 48.6875 35.125 C46.20983363 52.52434247 50.57485377 69.04804837 60.6796875 83.3828125 C62.33538775 85.41907356 62.33538775 85.41907356 65 88 C65.7425 88.86625 66.485 89.7325 67.25 90.625 C71.99227207 94.7205986 77.66760696 97.99284958 84 98.5625 C84.99 98.706875 85.98 98.85125 87 99 C94.59648978 110.63347201 92.29688493 132.42551664 89.92163086 145.39208984 C86.24306613 162.35837982 77.53332197 177.28960841 63 187.16015625 C24.47478776 210.78694657 -24.21974131 206.52970667 -66.5625 196.6875 C-92.55378973 190.44621027 -92.55378973 190.44621027 -96 187 C-95.91489898 185.23872958 -95.7623586 183.4806428 -95.58203125 181.7265625 C-94.99039469 175.26730583 -94.74739237 168.8593473 -94.6875 162.375 C-94.65849609 161.32054687 -94.62949219 160.26609375 -94.59960938 159.1796875 C-94.54801077 152.76558381 -95.35772054 147.94990315 -98.13598633 142.14306641 C-99 140 -99 140 -99 136 C-97.05859375 134.578125 -97.05859375 134.578125 -94.4375 133.25 C-82.6500881 126.54279661 -76.6454157 114.61398491 -73.09082031 101.86523438 C-69.96915241 89.3670224 -68.72393807 75.06310874 -74 63 C-74.37125 62.0925 -74.7425 61.185 -75.125 60.25 C-78.70711352 55.95146378 -83.70800242 52.76399919 -89 51 C-111.71745576 49.36004165 -130.75980719 58.83679698 -148 73 C-155.58537412 80.69816778 -157.52882314 88.94983704 -157.4921875 99.49975586 C-157.1286562 109.89788695 -152.4650016 118.96978748 -146 127 C-143.69191253 129.09826134 -141.76575571 130.61712214 -139 132 C-139 132.66 -139 133.32 -139 134 C-139.721875 134.639375 -140.44375 135.27875 -141.1875 135.9375 C-145.20830584 139.7285455 -146.93467575 144.9817015 -149 150 C-149.66 150 -150.32 150 -151 150 C-161.42122431 131.88043659 -165.5969067 113.43512978 -160.4375 92.625 C-155.50998218 75.74049839 -147.09554548 61.5751012 -136.5625 47.625 C-136.13735107 47.05885986 -135.71220215 46.49271973 -135.27416992 45.90942383 C-134.23269568 44.56605468 -133.12202445 43.27685958 -132 42 C-131.34 42 -130.68 42 -130 42 C-129.66548828 41.16662109 -129.66548828 41.16662109 -129.32421875 40.31640625 C-116.29830581 17.53066473 -81.82277285 4.44298951 -58.0859375 -2.23828125 C-39.95169426 -6.71445521 -17.78548984 -5.55311146 0 0 Z " fill="#FCFCFC" transform="translate(165,17)"/>
<path d="M0 0 C-0.43979698 3.4084266 -1.46587237 5.8904911 -3.0625 8.875 C-6.45644315 16.26983234 -6.38567984 25.87253726 -3.8125 33.5625 C-0.27258709 40.27612792 3.71057574 44.71563817 11 47 C19.11136678 48.36115401 26.41418962 45.63770564 34 43 C35.9995388 42.33195132 37.99940183 41.66486945 40 41 C40 41.99 40 42.98 40 44 C37.76953125 45.90234375 37.76953125 45.90234375 34.8125 47.9375 C22.61672368 56.41087069 14.8222732 66.04846882 12 81 C11.90179285 83.6376803 11.87131197 86.27869208 11.90625 88.91796875 C11.91301758 89.60322632 11.91978516 90.28848389 11.92675781 90.99450684 C11.94422229 92.66309177 11.97111645 94.33157367 12 96 C-71.77897977 97.12839488 -71.77897977 97.12839488 -93.6875 76 C-105.57126066 62.90198574 -108.17903797 48.40345609 -108.5 31.125 C-108.55414063 29.88363281 -108.60828125 28.64226562 -108.6640625 27.36328125 C-108.75275755 21.41437776 -108.80552184 17.07832277 -104.83984375 12.41015625 C-103.59851745 11.23138349 -102.31978475 10.090213 -101 9 C-100.00097656 8.15050781 -99.00195312 7.30101562 -97.97265625 6.42578125 C-94.9951586 4.26359839 -92.01364988 2.1115775 -89 0 C-88.29746094 -0.50789062 -87.59492187 -1.01578125 -86.87109375 -1.5390625 C-82.06289165 -4.81145057 -76.98625607 -6.50982918 -71.44140625 -8.203125 C-69.07859272 -8.77047474 -69.07859272 -8.77047474 -68 -10 C-44.99675539 -15.49990316 -20.16373685 -12.37320216 0 0 Z " fill="#FDFDFD" transform="translate(135,251)"/>
<path d="M0 0 C4.16528734 2.80939953 8.09616152 5.84000835 12 9 C12.71027344 9.54398438 13.42054688 10.08796875 14.15234375 10.6484375 C24.68078207 19.13147369 37.63705478 34.90391526 41 48 C42.29832809 61.58461181 40.27282132 71.75708012 31.8125 82.8125 C23.66500084 92.17403049 12.71120552 99.11097687 0.11157227 100.15673828 C-14.63375449 100.97015619 -25.07478694 98.45272806 -36.51953125 88.52734375 C-47.79898299 77.03473702 -51.41734684 62.39561585 -51.29101562 46.78222656 C-50.98094282 31.04316065 -47.07995795 15.02928468 -36 3.25 C-33.9765625 1.484375 -33.9765625 1.484375 -32 0 C-31.40960938 -0.44859375 -30.81921875 -0.8971875 -30.2109375 -1.359375 C-21.25671304 -6.92242509 -8.72838809 -5.10065179 0 0 Z " fill="#39393A" transform="translate(178,85)"/>
<path d="M0 0 C2.62113708 0 4.50935112 -0.31292445 7 -1 C10.32213188 5.15411315 12.91821942 11.26970982 15.0078125 17.9453125 C15.7578485 20.25447844 16.56832158 22.47419164 17.453125 24.73046875 C23.20213095 39.95075501 24.81843283 55.85702768 25 72 C24.175 71.855625 23.35 71.71125 22.5 71.5625 C8.674768 69.34058771 -4.91143473 68.63714491 -18.375 73.125 C-21 74 -21 74 -25 74 C-25 74.66 -25 75.32 -25 76 C-26.32 76 -27.64 76 -29 76 C-29 76.66 -29 77.32 -29 78 C-31.97 78.495 -31.97 78.495 -35 79 C-34.25 77.0625 -34.25 77.0625 -33 75 C-30.875 74.25 -30.875 74.25 -29 74 C-29 73.34 -29 72.68 -29 72 C-27.23289901 70.76564939 -25.40980432 69.61073584 -23.5625 68.5 C-19.62163235 66.37758703 -19.62163235 66.37758703 -17 63 C-16.29875 62.5875 -15.5975 62.175 -14.875 61.75 C-10.36405388 59.00420671 -5.70997084 56.12991253 -4 51 C-5.98491642 51.26676204 -5.98491642 51.26676204 -8 52 C-8.33 52.99 -8.66 53.98 -9 55 C-11.14453125 56.75390625 -11.14453125 56.75390625 -13.8125 58.5625 C-14.68519531 59.16191406 -15.55789062 59.76132812 -16.45703125 60.37890625 C-20.40588659 62.89622571 -22.20820182 64 -27 64 C-27 64.66 -27 65.32 -27 66 C-27.804375 66.28875 -28.60875 66.5775 -29.4375 66.875 C-32.1326468 67.73262568 -32.1326468 67.73262568 -33 70 C-35.52417434 70.76111735 -37.99781688 71.41115796 -40.5625 72 C-41.25408203 72.165 -41.94566406 72.33 -42.65820312 72.5 C-44.06414767 72.83543505 -45.47115642 73.16643829 -46.87915039 73.49316406 C-48.29175037 73.83074407 -49.70004227 74.18689463 -51.10327148 74.56152344 C-60.19187672 76.98688081 -69.00325563 76.65477703 -78 74 C-78.33 73.34 -78.66 72.68 -79 72 C-79.66 72.99 -80.32 73.98 -81 75 C-84.94129109 66.95319737 -85.55890446 57.73890807 -83.203125 49.06640625 C-82.27879395 46.84445662 -81.45455372 44.91670289 -80 43 C-78.515 42.505 -78.515 42.505 -77 42 C-74.97411439 39.59025634 -74.97411439 39.59025634 -73 36.6875 C-72.319375 35.72199219 -71.63875 34.75648438 -70.9375 33.76171875 C-69.74385067 32.06028714 -68.55523066 30.35529828 -67.375 28.64453125 C-66.92125 28.10183594 -66.4675 27.55914062 -66 27 C-65.34 27 -64.68 27 -64 27 C-63.78601563 26.46761719 -63.57203125 25.93523437 -63.3515625 25.38671875 C-60.02578006 19.51373299 -53.65850695 12.44811575 -47.01611328 10.38330078 C-43.62838039 9.84978012 -40.30422221 9.85551621 -36.8828125 9.9296875 C-29.79368688 10.05806201 -22.921664 8.39680427 -16 7 C-16 6.34 -16 5.68 -16 5 C-16.99 4.505 -16.99 4.505 -18 4 C-15.37764986 3.13683464 -12.75266548 2.28419221 -10.125 1.4375 C-9.37863281 1.19064453 -8.63226563 0.94378906 -7.86328125 0.68945312 C-2.2265625 -1.11328125 -2.2265625 -1.11328125 0 0 Z " fill="#39393B" transform="translate(213,213)"/>
<path d="M0 0 C0.66515625 0.27457031 1.3303125 0.54914063 2.015625 0.83203125 C4.51184881 2.30126534 5.65010462 3.90861679 7.25 6.3125 C8.03117187 7.45138672 8.03117187 7.45138672 8.828125 8.61328125 C10.14446007 11.294217 10.22956074 13.05223147 10 16 C10.66 16 11.32 16 12 16 C12.02465622 20.25414623 12.04283899 24.50825498 12.05493164 28.76245117 C12.05997101 30.21070073 12.06680253 31.65894517 12.07543945 33.10717773 C12.08752247 35.18474588 12.09323211 37.26224697 12.09765625 39.33984375 C12.10289307 40.59144287 12.10812988 41.84304199 12.11352539 43.13256836 C12 46 12 46 11 47 C10.58949341 50.02447391 10.48249294 53.07872653 10.3125 56.125 C10.25255859 56.96804687 10.19261719 57.81109375 10.13085938 58.6796875 C9.8322808 63.94775885 10.23834462 68.01876754 12 73 C12.55042969 72.79761719 13.10085937 72.59523438 13.66796875 72.38671875 C16.73199481 71.87861393 18.44369503 72.66416647 21.3125 73.8125 C25.51406047 75.44018227 29.64866877 76.83964501 34 78 C34 78.66 34 79.32 34 80 C35.03382812 79.96390625 36.06765625 79.9278125 37.1328125 79.890625 C40.84915131 79.99573357 43.38273617 80.57079403 46.875 81.75 C60.16691012 85.7748133 74.23669475 87.35835275 88 89 C87.42906864 92.3114019 86.45395174 93.75054423 84 96 C83.67 96.66 83.34 97.32 83 98 C79.44219804 97.39009109 76.3171411 96.4216319 73 95 C73 94.34 73 93.68 73 93 C71.906875 92.896875 70.81375 92.79375 69.6875 92.6875 C55.99424847 90.99424847 55.99424847 90.99424847 53 88 C38.33428565 85.60015583 23.40795081 86.58805582 9 90 C8.67 90.33 8.34 90.66 8 91 C8.99 91.99 8.99 91.99 10 93 C9.14019531 93.25652344 8.28039062 93.51304687 7.39453125 93.77734375 C-4.61266411 97.66626089 -14.99607442 103.99607442 -24 113 C-25.485 112.505 -25.485 112.505 -27 112 C-26.41509121 105.85845775 -25.45933748 99.99320151 -24 94 C-21.03824877 94.61277612 -19.61941217 95.25372522 -17 97 C-17 96.01 -17 95.02 -17 94 C-17.84111328 93.62875 -17.84111328 93.62875 -18.69921875 93.25 C-30.27618153 86.96030885 -37.99851523 75.2320269 -42 63 C-42.35578125 61.9378125 -42.7115625 60.875625 -43.078125 59.78125 C-47.19706396 42.88661902 -43.29861837 23.86308721 -34.390625 9.12890625 C-33.93171875 8.42636719 -33.4728125 7.72382813 -33 7 C-32.401875 6.05125 -31.80375 5.1025 -31.1875 4.125 C-22.10504059 -4.69796057 -11.2016117 -5.20074829 0 0 Z " fill="#39393B" transform="translate(56,150)"/>
<path d="M0 0 C1.36125 0.8971875 1.36125 0.8971875 2.75 1.8125 C5.67720249 4.65839131 7.22678279 7.31716426 9 11 C8.67 11.66 8.34 12.32 8 13 C7.95050341 14.8196413 7.9636417 16.64115913 8.0078125 18.4609375 C8.02457031 19.57339844 8.04132813 20.68585938 8.05859375 21.83203125 C8.10213573 24.15512372 8.15392911 26.47807939 8.21484375 28.80078125 C8.42596553 45.55617361 3.1623961 61.46039028 -8.375 73.8125 C-11.96713786 77.25263203 -16.82466571 81 -22 81 C-22 80.34 -22 79.68 -22 79 C-22.928125 78.71125 -23.85625 78.4225 -24.8125 78.125 C-28 77 -28 77 -31 75 C-38.95740884 72.9066513 -46.79924451 72.9605518 -54 77 C-56.5625 77.0625 -56.5625 77.0625 -59 76 C-60.31994896 74.55127553 -61.63519553 73.09125202 -62.81640625 71.52734375 C-64.02894419 69.86196464 -64.02894419 69.86196464 -66 68.25 C-72.37497437 61.07815383 -73.81935573 53.33328733 -74 44 C-74.05027344 43.01128906 -74.10054687 42.02257812 -74.15234375 41.00390625 C-74.42072836 33.09192786 -72.63602881 28.6903481 -67.49633789 22.58959961 C-64.89030593 19.82114242 -61.89447743 17.64641376 -58.8125 15.4375 C-58.15628662 14.96078857 -57.50007324 14.48407715 -56.82397461 13.99291992 C-51.81037965 10.41931529 -46.67595334 7.41728836 -41 5 C-41.495 3.515 -41.495 3.515 -42 2 C-39.93950145 1.18243762 -37.87651147 0.37115266 -35.8125 -0.4375 C-34.08966797 -1.11619141 -34.08966797 -1.11619141 -32.33203125 -1.80859375 C-22.45294132 -5.34097643 -8.80898563 -6.47785457 0 0 Z " fill="#39393B" transform="translate(84,71)"/>
<path d="M0 0 C4.28439862 3.63242492 6.57997354 6.47984124 7.5 12 C7 15 7 15 4.25 17.375 C1 19 1 19 -3 19 C-3 19.66 -3 20.32 -3 21 C-4.40527344 22.12915039 -4.40527344 22.12915039 -6.359375 23.34765625 C-7.06320313 23.78787109 -7.76703125 24.22808594 -8.4921875 24.68164062 C-9.23726563 25.13732422 -9.98234375 25.59300781 -10.75 26.0625 C-11.47960938 26.52205078 -12.20921875 26.98160156 -12.9609375 27.45507812 C-16.30639722 29.52622182 -19.11101904 31.19961356 -23 32 C-22.505 34.475 -22.505 34.475 -22 37 C-22.90621094 37.75023437 -23.81242187 38.50046875 -24.74609375 39.2734375 C-42.5972384 54.20219088 -57.03696404 72.34155733 -65.375 94.25 C-65.73307739 95.18743042 -65.73307739 95.18743042 -66.09838867 96.14379883 C-71.92858166 112.31019653 -72.71559747 132.02501813 -66 148 C-64.49025278 151.03790599 -62.91197611 153.97897067 -61.171875 156.890625 C-60 159 -60 159 -60 161 C-59.34 161 -58.68 161 -58 161 C-57.89429687 160.28328125 -57.78859375 159.5665625 -57.6796875 158.828125 C-56.93106336 155.71316018 -55.77368643 153.48960829 -54.125 150.75 C-53.61195312 149.87859375 -53.09890625 149.0071875 -52.5703125 148.109375 C-51 146 -51 146 -48 145 C-48 144.34 -48 143.68 -48 143 C-48.680625 142.835 -49.36125 142.67 -50.0625 142.5 C-59.55650987 137.65199496 -63.79578658 126.61264026 -67 117 C-67.7580268 105.35621132 -67.566308 95.60386093 -60.1875 86 C-54.77107947 80.21935163 -47.71386459 76.11153682 -41 72 C-40.36578125 71.60876953 -39.7315625 71.21753906 -39.078125 70.81445312 C-34.3692333 68 -34.3692333 68 -31 68 C-30.67 68.99 -30.34 69.98 -30 71 C-30.84820312 71.37769531 -31.69640625 71.75539063 -32.5703125 72.14453125 C-39.50046517 75.39637212 -45.6710423 78.93158029 -51.6875 83.6875 C-52.2748291 84.15067627 -52.8621582 84.61385254 -53.46728516 85.09106445 C-58.12648068 88.88151557 -61.15308464 92.24917824 -63 98 C-63.34212635 101.67060983 -63.13791547 105.31908366 -63 109 C-62.99355469 109.97710937 -62.98710938 110.95421875 -62.98046875 111.9609375 C-62.69915936 119.9001136 -60.487983 126.40703383 -56 133 C-54.3742806 134.38296492 -52.71115363 135.72426147 -51 137 C-49.1875 139.25 -49.1875 139.25 -48 141 C-43.92528215 140.49656717 -43.92528215 140.49656717 -40.1640625 138.9765625 C-35.00434492 136.64817009 -28.13983254 137.50619249 -22.75 138.75 C-19.11445321 140.40252127 -15.53889402 142.14971531 -12 144 C-12 144.66 -12 145.32 -12 146 C2.17633686 139.00155522 9.13184621 130.7076689 14.3125 115.6875 C16.28038885 109.60116023 17.12812118 103.90544858 17.09765625 97.5078125 C17.09443359 96.30898437 17.09121094 95.11015625 17.08789062 93.875 C17.07951172 92.6375 17.07113281 91.4 17.0625 90.125 C17.05798828 88.86429687 17.05347656 87.60359375 17.04882812 86.3046875 C17.0370796 83.20307614 17.02065167 80.10156275 17 77 C20 79 20 79 20.66796875 81.109375 C22.90061395 100.54652141 19.5441638 119.50721126 8.12109375 135.65625 C3.56467465 141.17918224 -1.68710213 144.70125214 -8 148 C-7.5978125 148.99 -7.5978125 148.99 -7.1875 150 C-6.795625 150.99 -6.40375 151.98 -6 153 C-5.20335938 154.75570312 -5.20335938 154.75570312 -4.390625 156.546875 C-2.35604657 162.01512484 -2.63905828 167.48796467 -2.75 173.25 C-2.75515625 174.30574219 -2.7603125 175.36148438 -2.765625 176.44921875 C-2.83632284 183.66923517 -3.30690981 190.8144277 -4 198 C17.37070726 205.78622668 39.39496734 210.59785639 62 213 C63.22203125 213.13148438 64.4440625 213.26296875 65.703125 213.3984375 C80.67469465 214.71111067 95.74528316 214.61515395 110.61328125 212.4453125 C114.80081621 211.89470237 118.78530713 211.84947525 123 212 C123 212.66 123 213.32 123 214 C119.57007918 215.47702896 116.36834372 216.44295205 112.6875 217.0625 C111.63691406 217.24296875 110.58632812 217.4234375 109.50390625 217.609375 C106.32980829 217.96323208 103.33633786 217.92443689 100.15185547 217.83349609 C92.10289964 217.75011737 87.86943931 219.81829477 82.0625 225.4375 C78.05362365 229.35418514 78.05362365 229.35418514 75 234 C74.34 234 73.68 234 73 234 C72.7421875 234.56589844 72.484375 235.13179687 72.21875 235.71484375 C70.87145886 238.24101463 69.28581825 240.32644367 67.5 242.5625 C65.55613602 245.00468505 63.73348485 247.39977272 62 250 C61.34 250 60.68 250 60 250 C60 248.35 60 246.7 60 245 C46.34328728 237.37055155 32.28234431 233.80031055 16.625 233.8125 C15.76100586 233.81185547 14.89701172 233.81121094 14.00683594 233.81054688 C5.57856795 233.87834281 -2.667865 234.79119285 -11 236 C-9 233 -9 233 -5.71875 232.05078125 C-4.31584225 231.78629864 -2.90913455 231.54150005 -1.5 231.3125 C-0.75041016 231.18584961 -0.00082031 231.05919922 0.77148438 230.92871094 C13.56722793 228.95890975 28.62987511 228.18215446 40.73828125 233.16796875 C45.36214741 234.86897651 50.20959034 235.87425373 55 237 C55 237.66 55 238.32 55 239 C58.3 239.99 61.6 240.98 65 242 C65.66 240.35 66.32 238.7 67 237 C67.66 237 68.32 237 69 237 C69.33 235.68 69.66 234.36 70 233 C69.07703125 232.97421875 68.1540625 232.9484375 67.203125 232.921875 C52.85672159 232.29811833 38.99655505 229.59462323 25.2109375 225.59375 C22.15424375 224.77287111 19.14264773 224.34918308 16 224 C16 223.34 16 222.68 16 222 C15.175 222.0825 14.35 222.165 13.5 222.25 C9.55200841 221.9680006 7.47819552 220.81571824 4.08984375 218.9296875 C1.819761 217.91981891 0.15378081 217.76895515 -2.3125 217.6875 C-4.1378125 217.3471875 -4.1378125 217.3471875 -6 217 C-9.38147545 211.3339483 -9.27194483 206.56560229 -8.75 200.125 C-8.69714844 199.25875 -8.64429687 198.3925 -8.58984375 197.5 C-8.16272321 191.16272321 -8.16272321 191.16272321 -7 190 C-6.84126045 187.78312006 -6.74866163 185.56144702 -6.68359375 183.33984375 C-6.6524221 182.34314415 -6.6524221 182.34314415 -6.62062073 181.3263092 C-6.55506342 179.19681457 -6.49621215 177.06719332 -6.4375 174.9375 C-6.39432061 173.49673153 -6.35070651 172.05597601 -6.30664062 170.61523438 C-6.19937607 167.0769596 -6.09812629 163.53854131 -6 160 C-6.66 160 -7.32 160 -8 160 C-8.18175781 159.38511719 -8.36351563 158.77023438 -8.55078125 158.13671875 C-8.80214844 157.32847656 -9.05351563 156.52023438 -9.3125 155.6875 C-9.55613281 154.88699219 -9.79976563 154.08648437 -10.05078125 153.26171875 C-11.04787062 150.88593789 -12.16367262 149.75402699 -14 148 C-14 147.34 -14 146.68 -14 146 C-14.5878125 145.86722656 -15.175625 145.73445312 -15.78125 145.59765625 C-18 145 -18 145 -21.5 143.4375 C-27.67390809 141.12659585 -34.1873489 140.88453397 -40.5234375 142.73828125 C-48.42028586 146.44414012 -52.57029958 154.1029804 -55.75 161.9375 C-57.51415112 167.18612351 -58.73429445 172.61401896 -60 178 C-61.546875 176.31640625 -61.546875 176.31640625 -63 174 C-62.828125 171.58984375 -62.828125 171.58984375 -62.25 168.9375 C-61.46165789 162.68885146 -63.57821251 159.74208117 -67.14453125 154.7734375 C-76.18682056 141.25759453 -76.08625321 120.98532311 -73.3515625 105.515625 C-68.95183969 87.9919427 -60.16484304 71.65722211 -48.72265625 57.7890625 C-46.71589648 54.54002288 -46.4935322 52.75319298 -47 49 C-48.84659471 47.32337286 -48.84659471 47.32337286 -51 46 C-53.59673928 42.30216985 -53.42235076 38.16743182 -53.4375 33.8125 C-53.44330078 32.67663452 -53.44330078 32.67663452 -53.44921875 31.51782227 C-53.32239906 25.36112283 -51.89348173 20.88075745 -48 16 C-47.34 16 -46.68 16 -46 16 C-45.773125 15.2575 -45.54625 14.515 -45.3125 13.75 C-43.7376598 10.45033483 -41.92496664 9.14021949 -39 7 C-38.52820312 6.51917969 -38.05640625 6.03835938 -37.5703125 5.54296875 C-27.81820628 -4.03932468 -12.07305722 -6.14243262 0 0 Z " fill="#0C0C0D" transform="translate(74,6)"/>
<path d="M0 0 C0.83869629 -0.01756348 1.67739258 -0.03512695 2.54150391 -0.05322266 C8.50193035 -0.04738711 13.40829292 1.10931979 18.9375 3.3125 C19.85806321 20.93958072 12.52881546 35.90511976 2.9375 50.3125 C2.53305664 50.92512695 2.12861328 51.53775391 1.71191406 52.16894531 C0.45039238 54.0626868 -0.83256608 55.9397442 -2.125 57.8125 C-2.51196045 58.38790527 -2.8989209 58.96331055 -3.29760742 59.55615234 C-8.55269355 66.99166794 -14.35366195 69.9330302 -23.29956055 71.47924805 C-36.15594035 73.46150925 -51.94859344 74.29983412 -64.0625 69 C-67.28285694 66.28282383 -68.88654094 63.59769118 -69.4609375 59.40234375 C-69.37530381 47.88461242 -67.79233481 36.41115973 -60.0625 27.3125 C-59.0725 27.3125 -58.0825 27.3125 -57.0625 27.3125 C-56.7221875 26.508125 -56.7221875 26.508125 -56.375 25.6875 C-53.86104545 21.13843938 -51.12351356 18.00623963 -46.8125 15.1875 C-43.93112033 13.60284786 -43.93112033 13.60284786 -43.1875 11.0625 C-43.14625 10.485 -43.105 9.9075 -43.0625 9.3125 C-42.7325 9.9725 -42.4025 10.6325 -42.0625 11.3125 C-40.9075 10.714375 -39.7525 10.11625 -38.5625 9.5 C-34.48663358 7.46206679 -30.35857795 5.81973743 -26.0625 4.3125 C-25.11375 3.961875 -24.165 3.61125 -23.1875 3.25 C-15.40335646 0.91475694 -8.11785076 0.09094378 0 0 Z " fill="#39393B" transform="translate(218.0625,284.6875)"/>
<path d="M0 0 C0.60199219 0.44859375 1.20398438 0.8971875 1.82421875 1.359375 C3.18546875 2.349375 3.18546875 2.349375 4.57421875 3.359375 C5.68796875 4.349375 5.68796875 4.349375 6.82421875 5.359375 C7.60796875 6.04 8.39171875 6.720625 9.19921875 7.421875 C20.69957675 20.29132324 24.01053973 34.32593374 23.06689453 51.12890625 C22.19340575 59.15726995 17.92412999 65.34389242 11.82421875 70.359375 C11.16421875 70.359375 10.50421875 70.359375 9.82421875 70.359375 C9.82421875 71.019375 9.82421875 71.679375 9.82421875 72.359375 C3.38921875 73.349375 3.38921875 73.349375 -3.17578125 74.359375 C-3.17578125 75.019375 -3.17578125 75.679375 -3.17578125 76.359375 C-10.74601745 75.86566394 -17.17868745 73.35165032 -22.60546875 67.93359375 C-35.66629979 52.3881265 -42.64258881 35.03564911 -40.9453125 14.58203125 C-40.71199999 12.17113529 -40.4570342 9.76509217 -40.17578125 7.359375 C-39.51578125 7.359375 -38.85578125 7.359375 -38.17578125 7.359375 C-37.51578125 8.019375 -36.85578125 8.679375 -36.17578125 9.359375 C-35.80066406 8.82828125 -35.42554688 8.2971875 -35.0390625 7.75 C-26.52095893 -4.00798679 -13.21834254 -8.69820692 0 0 Z " fill="#3A393B" transform="translate(253.17578125,39.640625)"/>
<path d="M0 0 C0.66 1.32 1.32 2.64 2 4 C2.66 4 3.32 4 4 4 C5.23568605 5.52834853 6.47027491 7.05765382 7.69140625 8.59765625 C9.31748495 10.34023014 10.63403644 10.82474344 13 11 C13 11.66 13 12.32 13 13 C13.763125 13.226875 14.52625 13.45375 15.3125 13.6875 C19.38764313 15.13797467 23.22034275 16.91888271 27.12109375 18.78125 C49.81510371 28.38848352 80.95996954 27.09577499 105 24 C105.99 23.505 105.99 23.505 107 23 C108.4465242 22.84932786 109.8987934 22.75138964 111.3515625 22.68359375 C112.20234375 22.64169922 113.053125 22.59980469 113.9296875 22.55664062 C114.81914062 22.51732422 115.70859375 22.47800781 116.625 22.4375 C117.5221875 22.39431641 118.419375 22.35113281 119.34375 22.30664062 C121.56234283 22.20043139 123.7810488 22.09838806 126 22 C125.47599609 23.21236328 125.47599609 23.21236328 124.94140625 24.44921875 C124.48636719 25.51785156 124.03132813 26.58648437 123.5625 27.6875 C123.11003906 28.74324219 122.65757812 29.79898437 122.19140625 30.88671875 C120.14475146 36.23486259 119.86675069 41.12534376 119.9375 46.8125 C119.94201172 47.50537109 119.94652344 48.19824219 119.95117188 48.91210938 C119.96286844 50.60811068 119.98080076 52.30406703 120 54 C36.22102023 55.12839488 36.22102023 55.12839488 14.3125 34 C5.37509083 24.14938822 0.88883924 13.33258865 0 0 Z " fill="#DADBDC" transform="translate(27,293)"/>
<path d="M0 0 C1.8136522 0.43269875 3.62585732 0.87146339 5.4375 1.3125 C6.44683594 1.55613281 7.45617187 1.79976562 8.49609375 2.05078125 C11.11054476 2.7590439 13.57624335 3.54367362 16.12109375 4.4453125 C21.84285837 6.38267875 27.69494929 7.46152585 33.625 8.5625 C35.35314941 8.88782715 35.35314941 8.88782715 37.11621094 9.21972656 C45.38638365 10.7536539 53.62894179 12.13989127 62 13 C63.60294922 13.16628906 63.60294922 13.16628906 65.23828125 13.3359375 C80.38569202 14.65310365 95.56743766 14.64110879 110.61328125 12.4453125 C114.80081621 11.89470237 118.78530713 11.84947525 123 12 C123 12.66 123 13.32 123 14 C119.57007918 15.47702896 116.36834372 16.44295205 112.6875 17.0625 C111.63691406 17.24296875 110.58632812 17.4234375 109.50390625 17.609375 C106.32980829 17.96323208 103.33633786 17.92443689 100.15185547 17.83349609 C92.10289964 17.75011737 87.86943931 19.81829477 82.0625 25.4375 C78.05362365 29.35418514 78.05362365 29.35418514 75 34 C74.34 34 73.68 34 73 34 C72.7421875 34.56589844 72.484375 35.13179687 72.21875 35.71484375 C70.87145886 38.24101463 69.28581825 40.32644367 67.5 42.5625 C65.55613602 45.00468505 63.73348485 47.39977272 62 50 C61.34 50 60.68 50 60 50 C60 48.35 60 46.7 60 45 C46.34328728 37.37055155 32.28234431 33.80031055 16.625 33.8125 C15.76100586 33.81185547 14.89701172 33.81121094 14.00683594 33.81054688 C5.57856795 33.87834281 -2.667865 34.79119285 -11 36 C-9 33 -9 33 -5.71875 32.05078125 C-4.31584225 31.78629864 -2.90913455 31.54150005 -1.5 31.3125 C-0.75041016 31.18584961 -0.00082031 31.05919922 0.77148438 30.92871094 C13.56722793 28.95890975 28.62987511 28.18215446 40.73828125 33.16796875 C45.36214741 34.86897651 50.20959034 35.87425373 55 37 C55 37.66 55 38.32 55 39 C58.3 39.99 61.6 40.98 65 42 C65.66 40.35 66.32 38.7 67 37 C67.66 37 68.32 37 69 37 C69.33 35.68 69.66 34.36 70 33 C69.07703125 32.97421875 68.1540625 32.9484375 67.203125 32.921875 C52.85672159 32.29811833 38.99655505 29.59462323 25.2109375 25.59375 C22.15424375 24.77287111 19.14264773 24.34918308 16 24 C16 23.34 16 22.68 16 22 C14.7625 22.12375 14.7625 22.12375 13.5 22.25 C9.5523457 21.96802469 7.37923757 20.81312352 3.96875 18.95703125 C1.37288778 17.69515378 -1.14397457 17.28560254 -4 17 C-5.86783046 11.51324804 -6.2358396 6.77807024 -6 1 C-3.69 1.33 -1.38 1.66 1 2 C0.67 1.34 0.34 0.68 0 0 Z " fill="#202020" transform="translate(74,206)"/>
<path d="M0 0 C0.7523291 -0.01877197 1.5046582 -0.03754395 2.27978516 -0.05688477 C9.3748606 0.02474825 14.61736039 2.29253016 19.6875 7.25 C21.45824487 9.88082095 22.46656827 11.79227611 23.51171875 14.703125 C23.89976685 15.77288574 23.89976685 15.77288574 24.2956543 16.86425781 C24.48683838 17.40405273 24.67802246 17.94384766 24.875 18.5 C25.42849121 18.32871582 25.98198242 18.15743164 26.55224609 17.98095703 C29.11662996 17.19056109 31.68327548 16.40775996 34.25 15.625 C35.12011719 15.35558594 35.99023438 15.08617187 36.88671875 14.80859375 C66.82889331 5.71504444 97.96361231 8.33380505 125.75 22.8125 C136.55461103 28.6644829 145.87430723 36.15844887 154.875 44.5 C155.555625 43.778125 156.23625 43.05625 156.9375 42.3125 C163.11254939 36.18963412 168.82673701 32.91379205 177.6875 32.1875 C188.83004715 32.59463153 197.56686865 37.9661828 205.171875 45.89453125 C214.41189313 56.92350026 219.48042614 69.45964299 219.375 83.875 C219.36927979 84.79039551 219.36355957 85.70579102 219.35766602 86.64892578 C219.11313041 95.94786569 216.93402848 103.47035987 210.625 110.5 C206.73458884 113.99709486 201.25735167 117.5 195.875 117.5 C196.184375 118.510625 196.49375 119.52125 196.8125 120.5625 C199.20354855 128.37325858 199.0579275 136.2816777 199.0625 144.375 C199.07474609 145.50808594 199.08699219 146.64117187 199.09960938 147.80859375 C199.11097575 154.34804819 198.74525512 160.21331787 196.875 166.5 C196.215 166.83 195.555 167.16 194.875 167.5 C194.89071045 166.48276855 194.9064209 165.46553711 194.92260742 164.41748047 C194.97769097 160.57446492 195.01162926 156.73148272 195.03979492 152.88818359 C195.05470574 151.23773291 195.07504166 149.58732057 195.10131836 147.93701172 C195.26199568 137.57174914 195.24233702 127.44925985 191.875 117.5 C191.215 117.17 190.555 116.84 189.875 116.5 C189.875 115.84 189.875 115.18 189.875 114.5 C189.215 114.17 188.555 113.84 187.875 113.5 C192.825 113.17 197.775 112.84 202.875 112.5 C202.875 111.84 202.875 111.18 202.875 110.5 C204.0920702 109.46017303 205.34998082 108.46789777 206.625 107.5 C211.93884145 102.86452129 214.35546547 98.48312467 215.09375 91.40185547 C216.23543585 74.50847261 212.57992159 60.80845978 201.5 47.6875 C197.83367016 44.63222513 193.94798629 41.9845945 189.875 39.5 C188.95847656 38.92765625 188.95847656 38.92765625 188.0234375 38.34375 C182.24951149 36.07617178 173.61895585 36.45400213 167.8125 38.625 C163.50726591 41.37302176 161.14088177 44.71838862 158.1875 48.875 C157.754375 49.41125 157.32125 49.9475 156.875 50.5 C156.215 50.5 155.555 50.5 154.875 50.5 C154.875 49.51 154.875 48.52 154.875 47.5 C154.30136719 47.41492187 153.72773438 47.32984375 153.13671875 47.2421875 C150.21696623 46.28406491 148.86471774 44.79065729 146.6875 42.625 C123.00800514 20.84955809 94.39388262 13.38702172 62.890625 14.11328125 C54.68634965 14.45784342 47.63029859 15.81513499 39.875 18.5 C38.64652344 18.86222656 37.41804688 19.22445313 36.15234375 19.59765625 C21.14176818 24.17689078 6.96679264 31.42656589 -5.3125 41.25 C-7.125 42.5 -7.125 42.5 -9.375 42.1875 C-9.9525 41.960625 -10.53 41.73375 -11.125 41.5 C-10.465 41.5 -9.805 41.5 -9.125 41.5 C-9.125 40.51 -9.125 39.52 -9.125 38.5 C-8.196875 37.984375 -7.26875 37.46875 -6.3125 36.9375 C-1.91502088 34.44138993 2.29389455 31.66497406 6.51953125 28.890625 C8.875 27.5 8.875 27.5 10.875 27.5 C10.875 26.84 10.875 26.18 10.875 25.5 C11.44089844 25.29503906 12.00679687 25.09007813 12.58984375 24.87890625 C13.32332031 24.60949219 14.05679688 24.34007813 14.8125 24.0625 C15.54339844 23.79566406 16.27429688 23.52882813 17.02734375 23.25390625 C18.85805678 22.64613052 18.85805678 22.64613052 19.875 21.5 C20.31391739 17.72531041 20.01852357 15.77600686 18.25 12.375 C14.81512004 8.21698742 11.2000118 5.50925314 5.875 4.5 C-4.76266922 3.68891672 -13.45766028 5.21617871 -22.125 11.5 C-22.785 11.5 -23.445 11.5 -24.125 11.5 C-24.455 12.49 -24.785 13.48 -25.125 14.5 C-25.929375 15.139375 -26.73375 15.77875 -27.5625 16.4375 C-30.01805131 18.41391935 -30.99539721 19.62464744 -32.125 22.5 C-32.785 22.5 -33.445 22.5 -34.125 22.5 C-34.41375 23.428125 -34.7025 24.35625 -35 25.3125 C-36.125 28.5 -36.125 28.5 -38.125 31.5 C-38.29472473 34.35080018 -38.35791579 37.09064735 -38.3125 39.9375 C-38.3115332 41.0831543 -38.3115332 41.0831543 -38.31054688 42.25195312 C-38.28022163 47.45270856 -38.28022163 47.45270856 -37.125 52.5 C-35.80852881 53.19937532 -34.47477849 53.86729133 -33.125 54.5 C-32.795 55.49 -32.465 56.48 -32.125 57.5 C-32.785 58.16 -33.445 58.82 -34.125 59.5 C-40.06472004 53.88134591 -43.18085144 49.13674626 -43.4375 40.9375 C-43.26497214 30.24077242 -38.19049383 21.29045492 -31.125 13.5 C-21.48692193 4.83103997 -12.90716254 0.23231318 0 0 Z " fill="#050505" transform="translate(60.125,-0.5)"/>
<path d="M0 0 C0.66 0.33 1.32 0.66 2 1 C1.97381592 1.67877197 1.94763184 2.35754395 1.9206543 3.05688477 C1.2660256 22.63774057 2.45940144 38.51032257 15.7578125 54.0546875 C18.5942567 57.01832651 21.54803955 59.4448941 24.9375 61.75 C25.948125 62.4925 26.95875 63.235 28 64 C28 64.99 28 65.98 28 67 C27.1028125 66.5359375 27.1028125 66.5359375 26.1875 66.0625 C23.91043228 64.89790296 23.91043228 64.89790296 21 64 C20.87625 65.299375 20.7525 66.59875 20.625 67.9375 C20.10136672 72.71849952 19.13686165 77.33114101 18 82 C18.99 82 19.98 82 21 82 C19.84826645 84.46800047 18.95216435 86.04783565 17 88 C16.53229897 92.43921033 16.67613172 96.91408681 16.6875 101.375 C16.67138672 102.60089844 16.65527344 103.82679688 16.63867188 105.08984375 C16.63439023 113.16502985 17.64894987 120.2820599 20 128 C20.259021 128.88647217 20.51804199 129.77294434 20.78491211 130.6862793 C23.66032901 139.98990714 32.13449758 149.2640944 40.66796875 153.921875 C57.73626193 161.81274421 74.37724636 164.39296035 93 166 C91.68 166.33 90.36 166.66 89 167 C89 167.66 89 168.32 89 169 C87.83726563 168.96519531 86.67453125 168.93039062 85.4765625 168.89453125 C77.01307376 168.72337159 68.95920647 168.92951312 60.625 170.5 C48.58349974 172.75021223 34.57607607 174.14933983 23.5625 167.6875 C17.79838005 163.64085253 14.81275919 158.78927528 13 152 C12.52112926 147.98901364 12.4411823 143.99760512 12.3828125 139.9609375 C12.35774628 138.80365143 12.33268005 137.64636536 12.30685425 136.45401001 C12.25800434 134.00495331 12.21641897 131.55574226 12.18164062 129.10644531 C12.12590582 125.43467512 12.03728576 121.76476854 11.9453125 118.09375 C11.59991989 100.97742615 12.09862465 84.04447716 17.125 67.5625 C18.20345299 63.6389783 18.20345299 63.6389783 16.875 60.015625 C15.13674907 58.2663388 15.13674907 58.2663388 13.109375 56.71484375 C4.48551004 49.70396094 -0.15712316 37.68848635 -2 27 C-2.21046597 23.52253616 -2.18509277 20.04576878 -2.1875 16.5625 C-2.20586914 15.1693457 -2.20586914 15.1693457 -2.22460938 13.74804688 C-2.23526569 8.75734148 -1.97535241 4.6768225 0 0 Z " fill="#070708" transform="translate(11,180)"/>
<path d="M0 0 C4.28439862 3.63242492 6.57997354 6.47984124 7.5 12 C7 15 7 15 4.25 17.375 C1 19 1 19 -3 19 C-3 19.66 -3 20.32 -3 21 C-4.40527344 22.12915039 -4.40527344 22.12915039 -6.359375 23.34765625 C-7.06320313 23.78787109 -7.76703125 24.22808594 -8.4921875 24.68164062 C-9.23726562 25.13732422 -9.98234375 25.59300781 -10.75 26.0625 C-11.47960938 26.52205078 -12.20921875 26.98160156 -12.9609375 27.45507812 C-16.30639722 29.52622182 -19.11101904 31.19961356 -23 32 C-23 32.99 -23 33.98 -23 35 C-25.9146629 38.13886774 -28.83926627 39.95357065 -33.125 40.125 C-39.27451616 37.71866759 -43.3282673 31.88600115 -46 26 C-47.31526663 21.08105486 -47.6569664 17.42342719 -45.5 12.75 C-33.79244472 -0.12831081 -16.94326517 -8.62025772 0 0 Z " fill="#39393B" transform="translate(74,6)"/>
<path d="M0 0 C0.33 0 0.66 0 1 0 C1 6.27 1 12.54 1 19 C1.66 19 2.32 19 3 19 C3 19.66 3 20.32 3 21 C3.68964844 21.18175781 4.37929687 21.36351562 5.08984375 21.55078125 C22.1011236 26.1011236 22.1011236 26.1011236 24 28 C27.92426498 28.96516177 31.9069154 29.67561891 35.875 30.4375 C37.04562988 30.6634082 38.21625977 30.88931641 39.42236328 31.12207031 C48.04874835 32.73973827 56.62706289 33.88771184 65.3671875 34.640625 C69 35 69 35 70.84140015 35.51437378 C73.65426709 36.14719229 76.2868849 36.127305 79.17041016 36.12939453 C81.04353378 36.13412277 81.04353378 36.13412277 82.95449829 36.13894653 C84.31602005 36.1371554 85.67754149 36.13510411 87.0390625 36.1328125 C88.44428525 36.13348682 89.84950788 36.13445792 91.25473022 36.13571167 C94.20189523 36.1371855 97.14902993 36.13504613 100.09619141 36.13037109 C103.84823366 36.1247055 107.60020388 36.12793457 111.35224342 36.13394356 C114.25727871 36.13758468 117.16229739 36.13639386 120.06733322 36.13381577 C121.44902938 36.13315464 122.8307271 36.13394603 124.21242142 36.13629532 C131.87154978 36.14645136 139.39764023 35.97694689 147 35 C123.474796 53.05814482 81.93143428 48.11273537 54.52832031 44.69140625 C6.32449213 38.32449213 6.32449213 38.32449213 -2 30 C-1.94569659 27.77772301 -1.81787487 25.55718196 -1.66015625 23.33984375 C-1.61434921 22.67537735 -1.56854218 22.01091095 -1.52134705 21.3263092 C-1.37335953 19.1963243 -1.21800935 17.06694769 -1.0625 14.9375 C-0.96110453 13.49677877 -0.86018677 12.05602384 -0.75976562 10.61523438 C-0.51205993 7.07641454 -0.25774687 3.53810426 0 0 Z " fill="#D8D9D9" transform="translate(71,174)"/>
<path d="M0 0 C12.88822091 8.82388568 20.69200698 21.25931814 24.19921875 36.37109375 C24.6289799 39.8420142 24.72478081 43.25088614 24.69921875 46.74609375 C24.69349854 47.66148926 24.68777832 48.57688477 24.68188477 49.52001953 C24.43734916 58.81895944 22.25824723 66.34145362 15.94921875 73.37109375 C12.05880759 76.86818861 6.58157042 80.37109375 1.19921875 80.37109375 C1.50859375 81.38171875 1.81796875 82.39234375 2.13671875 83.43359375 C4.5277673 91.24435233 4.38214625 99.15277145 4.38671875 107.24609375 C4.39896484 108.37917969 4.41121094 109.51226562 4.42382812 110.6796875 C4.4351945 117.21914194 4.06947387 123.08441162 2.19921875 129.37109375 C1.53921875 129.70109375 0.87921875 130.03109375 0.19921875 130.37109375 C0.2149292 129.3538623 0.23063965 128.33663086 0.24682617 127.28857422 C0.30190972 123.44555867 0.33584801 119.60257647 0.36401367 115.75927734 C0.37892449 114.10882666 0.39926041 112.45841432 0.42553711 110.80810547 C0.58621443 100.44284289 0.56655577 90.3203536 -2.80078125 80.37109375 C-3.79078125 79.87609375 -3.79078125 79.87609375 -4.80078125 79.37109375 C-4.80078125 78.71109375 -4.80078125 78.05109375 -4.80078125 77.37109375 C-5.79078125 76.87609375 -5.79078125 76.87609375 -6.80078125 76.37109375 C-1.85078125 76.04109375 3.09921875 75.71109375 8.19921875 75.37109375 C8.19921875 74.71109375 8.19921875 74.05109375 8.19921875 73.37109375 C9.41628895 72.33126678 10.67419957 71.33899152 11.94921875 70.37109375 C17.2630602 65.73561504 19.67968422 61.35421842 20.41796875 54.27294922 C21.5596546 37.37956636 17.90414034 23.67955353 6.82421875 10.55859375 C3.15788891 7.50331888 -0.72779496 4.85568825 -4.80078125 2.37109375 C-5.41179687 1.98953125 -6.0228125 1.60796875 -6.65234375 1.21484375 C-12.42626976 -1.05273447 -21.0568254 -0.67490412 -26.86328125 1.49609375 C-31.16851534 4.24411551 -33.53489948 7.58948237 -36.48828125 11.74609375 C-36.92140625 12.28234375 -37.35453125 12.81859375 -37.80078125 13.37109375 C-38.46078125 13.37109375 -39.12078125 13.37109375 -39.80078125 13.37109375 C-39.80078125 12.38109375 -39.80078125 11.39109375 -39.80078125 10.37109375 C-40.35765625 10.30921875 -40.91453125 10.24734375 -41.48828125 10.18359375 C-44.81607343 9.01436947 -46.53211957 7.01786571 -48.80078125 4.37109375 C-48.80078125 3.38109375 -48.80078125 2.39109375 -48.80078125 1.37109375 C-44.4221887 1.87631597 -41.98426901 4.54936597 -38.80078125 7.37109375 C-38.16140625 6.48421875 -37.52203125 5.59734375 -36.86328125 4.68359375 C-27.44922646 -6.6670666 -12.08859801 -7.03060721 0 0 Z " fill="#050505" transform="translate(254.80078125,36.62890625)"/>
<path d="M0 0 C3.65492317 1.43018733 4.76592331 2.82596004 6.875 6.125 C8.46282072 16.12279527 7.03408764 25.36296257 1.875 34.125 C0.29754501 36.24470515 -0.99613882 37.51396992 -3.125 39.125 C-3.785 39.125 -4.445 39.125 -5.125 39.125 C-5.125 39.785 -5.125 40.445 -5.125 41.125 C-9.63169915 41.49040804 -9.63169915 41.49040804 -11.8125 39.875 C-15.99522648 34.29803136 -15.67217089 28.88137096 -15.125 22.125 C-14.32911481 18.05816471 -13.30770369 14.09550524 -12.125 10.125 C-11.465 10.125 -10.805 10.125 -10.125 10.125 C-10.08375 9.403125 -10.0425 8.68125 -10 7.9375 C-8.4665879 3.00867541 -5.17922954 0.20716918 0 0 Z " fill="#040405" transform="translate(157.125,125.875)"/>
<path d="M0 0 C4.90312723 -0.13758775 9.21660748 0.31552052 14 1.375 C37.37944913 6.32621726 61.9189007 7.90327965 85.61328125 4.4453125 C89.80081621 3.89470237 93.78530713 3.84947525 98 4 C98 4.66 98 5.32 98 6 C94.57007918 7.47702896 91.36834372 8.44295205 87.6875 9.0625 C86.11162109 9.33320313 86.11162109 9.33320313 84.50390625 9.609375 C81.32980829 9.96323208 78.33633786 9.92443689 75.15185547 9.83349609 C67.10289964 9.75011737 62.86943931 11.81829477 57.0625 17.4375 C53.05362365 21.35418514 53.05362365 21.35418514 50 26 C49.34 26 48.68 26 48 26 C47.61328125 26.84884766 47.61328125 26.84884766 47.21875 27.71484375 C45.87145886 30.24101463 44.28581825 32.32644367 42.5 34.5625 C40.55613602 37.00468505 38.73348485 39.39977272 37 42 C36.34 42 35.68 42 35 42 C35 40.35 35 38.7 35 37 C21.34328728 29.37055155 7.28234431 25.80031055 -8.375 25.8125 C-9.23899414 25.81185547 -10.10298828 25.81121094 -10.99316406 25.81054688 C-19.42143205 25.87834281 -27.667865 26.79119285 -36 28 C-34 25 -34 25 -30.71875 24.05078125 C-29.31584225 23.78629864 -27.90913455 23.54150005 -26.5 23.3125 C-25.75041016 23.18584961 -25.00082031 23.05919922 -24.22851562 22.92871094 C-11.43277207 20.95890975 3.62987511 20.18215446 15.73828125 25.16796875 C20.36214741 26.86897651 25.20959034 27.87425373 30 29 C30 29.66 30 30.32 30 31 C33.3 31.99 36.6 32.98 40 34 C40.99 31.525 40.99 31.525 42 29 C42.66 29 43.32 29 44 29 C44.19335938 28.31550781 44.38671875 27.63101563 44.5859375 26.92578125 C46.53855915 22.88568839 49.4119156 20.26670588 52.625 17.1875 C53.23601562 16.59001953 53.84703125 15.99253906 54.4765625 15.37695312 C55.97764839 13.91104894 57.48792862 12.45457007 59 11 C50.9578068 9.8984762 42.98685419 8.94348728 34.875 8.5625 C28.50108854 8.21324458 22.55899905 7.22116185 16.3515625 5.765625 C11.27369411 4.60564574 6.14479853 3.80093017 1 3 C0.505 1.515 0.505 1.515 0 0 Z " fill="#0A0B0B" transform="translate(99,214)"/>
<path d="M0 0 C4.74915095 3.07298002 7.75102871 6.33867932 9 12 C9.66961441 17.60244055 9.98103396 22.24090462 7.1875 27.25 C1.3555642 30.45184711 -4.57171356 29.42398652 -10.9375 28.3125 C-14.69111294 26.70380874 -16.1341473 25.65396153 -18 22 C-18.71600109 15.64240414 -16.29269983 10.96946263 -12.609375 5.953125 C-8.86136399 1.40456794 -6.07973446 -1.11668592 0 0 Z " fill="#E20487" transform="translate(93,160)"/>
<path d="M0 0 C1.9375 1.75 1.9375 1.75 3 4 C2.6875 6.25 2.6875 6.25 2 8 C1.67 7.01 1.34 6.02 1 5 C-2.03845237 5.67534517 -2.03845237 5.67534517 -3.1875 7.75 C-4.10819096 10.29960574 -4.14948718 12.30923081 -4 15 C-0.23569087 13.74523029 0.05044108 12.30577382 2 9 C2.66 9 3.32 9 4 9 C4.67337763 19.88627161 2.81292969 28.27093384 -4 37 C-5.8125 38.9375 -5.8125 38.9375 -8 40 C-11.5625 40.0625 -11.5625 40.0625 -15 39 C-19.07069616 32.65422654 -18.6251843 26.28548105 -18 19 C-17.30438021 15.99984388 -16.35713184 13.81479197 -15 11 C-14.525625 9.9275 -14.05125 8.855 -13.5625 7.75 C-10.19441835 1.8221763 -6.87755405 -0.70179123 0 0 Z " fill="#030303" transform="translate(70,107)"/>
<path d="M0 0 C4.16528734 2.80939953 8.09616152 5.84000835 12 9 C12.71027344 9.54398438 13.42054688 10.08796875 14.15234375 10.6484375 C24.68078207 19.13147369 37.63705478 34.90391526 41 48 C42.29832809 61.58461181 40.27282132 71.75708012 31.8125 82.8125 C23.99667689 91.79293251 13.90980168 98.21184281 2 100 C-0.93858281 100.18735807 -3.86853358 100.23055183 -6.8125 100.25 C-7.58142578 100.270625 -8.35035156 100.29125 -9.14257812 100.3125 C-14.75070853 100.3503608 -18.85313136 99.23011412 -24 97 C-24 96.01 -24 95.02 -24 94 C-22.22496094 94.34224609 -22.22496094 94.34224609 -20.4140625 94.69140625 C-5.59761696 97.43978238 5.99900675 97.64243808 19.46484375 89.51171875 C23.30291054 86.74573765 26.11765897 83.76921519 29 80 C29.66 80 30.32 80 31 80 C31.28746094 79.27683594 31.57492188 78.55367188 31.87109375 77.80859375 C32.57971942 76.04561154 33.29943558 74.28700434 34.03515625 72.53515625 C35.90452911 68.03586719 37.57425598 63.89605619 38 59 C38.185625 57.205625 38.185625 57.205625 38.375 55.375 C38.17447477 44.84742557 31.22599426 35.90997747 25 28 C24.06220703 26.75669922 24.06220703 26.75669922 23.10546875 25.48828125 C16.56851308 16.87203248 8.46596928 7.64440002 -2 4 C-2 3.34 -2 2.68 -2 2 C-9.98516302 -0.55525217 -19.47400751 -1.87445397 -27.3671875 1.39453125 C-30.08834019 2.73433584 -30.08834019 2.73433584 -31 5 C-31.99 5.33 -32.98 5.66 -34 6 C-38.80232406 12.1120488 -41.92440149 18.55226418 -44 26 C-44.99 26 -45.98 26 -47 26 C-46.57042662 16.33459885 -41.04167542 8.06329122 -34.046875 1.66015625 C-24.13711078 -6.37734335 -10.97136937 -6.41139398 0 0 Z " fill="#151515" transform="translate(178,85)"/>
<path d="M0 0 C2.88818713 1.44409357 3.47059634 3.53077458 4.9375 6.375 C6.91922393 10.30667566 6.91922393 10.30667566 9.69140625 13.6640625 C11 15 11 15 11 18 C11.598125 18.0825 12.19625 18.165 12.8125 18.25 C15 19 15 19 16.375 20.9375 C18.59089775 23.7499856 20.57778757 23.98601113 24 25 C25.4237552 25.63005259 26.83996067 26.27732258 28.25 26.9375 C33.03558277 29.11424719 37.93873603 30.60524667 43 32 C43 31.34 43 30.68 43 30 C43.99 30.33 44.98 30.66 46 31 C45.34 31 44.68 31 44 31 C44 31.66 44 32.32 44 33 C45.32 33.33 46.64 33.66 48 34 C41.50163953 36.42831234 35.55599826 36.40421164 28.6875 36.4375 C27.50220703 36.47037109 26.31691406 36.50324219 25.09570312 36.53710938 C16.75556818 36.58799206 10.53338483 35.35103485 4.38549805 29.45043945 C0.7900167 25.36204454 -0.12837432 22.20875783 -0.09765625 16.89453125 C-0.09443359 15.91162109 -0.09121094 14.92871094 -0.08789062 13.91601562 C-0.07951172 12.89185547 -0.07113281 11.86769531 -0.0625 10.8125 C-0.05798828 9.77673828 -0.05347656 8.74097656 -0.04882812 7.67382812 C-0.0370401 5.11582734 -0.02058515 2.55794267 0 0 Z " fill="#373838" transform="translate(28,312)"/>
<path d="M0 0 C0.66 0.99 1.32 1.98 2 3 C1.72285156 3.54269531 1.44570312 4.08539063 1.16015625 4.64453125 C0.79792969 5.35996094 0.43570312 6.07539062 0.0625 6.8125 C-0.29714844 7.52019531 -0.65679688 8.22789063 -1.02734375 8.95703125 C-4.56001049 16.37705015 -4.14586914 26.60914799 -2.09375 34.47265625 C1.43654935 43.24182933 6.22778608 52.61389304 15 57 C15 57.66 15 58.32 15 59 C14.278125 59.639375 13.55625 60.27875 12.8125 60.9375 C8.79169416 64.7285455 7.06532425 69.9817015 5 75 C4.34 75 3.68 75 3 75 C-7.51752546 56.71299611 -11.61458169 38.19959452 -6.25 17.25 C-4.54901867 11.3451648 -2.5313467 5.60127781 0 0 Z " fill="#F3F3F3" transform="translate(11,92)"/>
<path d="M0 0 C0.99464747 2.63180013 1.044721 3.85270993 0.21484375 6.5859375 C-2.48599549 12.48318281 -4.96033379 16.85627445 -10 21 C-10.66 21 -11.32 21 -12 21 C-12 21.66 -12 22.32 -12 23 C-16.29 23.66 -20.58 24.32 -25 25 C-25 25.66 -25 26.32 -25 27 C-31.9593337 26.54613041 -38.99720822 24.00279178 -44 19 C-43.625 16.375 -43.625 16.375 -43 14 C-42.43079834 14.00523682 -41.86159668 14.01047363 -41.27514648 14.01586914 C-38.66260917 14.03682887 -36.05008963 14.04972004 -33.4375 14.0625 C-32.54224609 14.07087891 -31.64699219 14.07925781 -30.72460938 14.08789062 C-25.70002057 14.10629571 -20.95182709 13.86266398 -16 13 C-16 12.34 -16 11.68 -16 11 C-12.535 10.505 -12.535 10.505 -9 10 C-9 9.34 -9 8.68 -9 8 C-7.68 7.67 -6.36 7.34 -5 7 C-5 6.34 -5 5.68 -5 5 C-3.37446717 3.29319053 -1.70884005 1.62339805 0 0 Z " fill="#202020" transform="translate(275,89)"/>
<path d="M0 0 C28.09110427 -0.69027286 56.3877388 8.6131557 77.71875 27.16015625 C78.21375 28.15015625 78.21375 28.15015625 78.71875 29.16015625 C77.72875 30.64515625 77.72875 30.64515625 76.71875 32.16015625 C76.29207031 31.74765625 75.86539063 31.33515625 75.42578125 30.91015625 C52.99759567 10.19298689 24.36944166 4.11663745 -5.23828125 4.76171875 C-13.41254171 5.10208711 -20.53677755 6.5911666 -28.28125 9.16015625 C-30.9398659 9.86492122 -33.60759543 10.51358619 -36.28125 11.16015625 C-35.98046875 9.2578125 -35.98046875 9.2578125 -35.28125 7.16015625 C-24.55680861 1.90307713 -11.80272584 0.57608543 0 0 Z " fill="#0D0D0D" transform="translate(128.28125,8.83984375)"/>
<path d="M0 0 C-0.886875 0.556875 -1.77375 1.11375 -2.6875 1.6875 C-4.93030942 3.16193952 -6.35713028 4.39794517 -8.1875 6.4375 C-12.15636057 10.05357296 -18.44294271 14 -24 14 C-24 14.66 -24 15.32 -24 16 C-25.98 16.66 -27.96 17.32 -30 18 C-30 18.99 -30 19.98 -30 21 C-37.45180658 23.20794269 -44.9697034 24.69377812 -52.3125 21.375 C-56.18453988 19.15230774 -58.55744899 16.74015623 -61 13 C-61.3125 10.125 -61.3125 10.125 -61 8 C-60.01 8.495 -60.01 8.495 -59 9 C-59 9.66 -59 10.32 -59 11 C-48.05479899 12.45936013 -38.43742682 12.49825738 -27.78295898 9.51098633 C-23.16818399 8.21950532 -18.75042162 7.50143339 -14 7 C-13.67 6.01 -13.34 5.02 -13 4 C-11.35 3.67 -9.7 3.34 -8 3 C-8 2.34 -8 1.68 -8 1 C-2.25 -1.125 -2.25 -1.125 0 0 Z " fill="#202021" transform="translate(194,276)"/>
<path d="M0 0 C2.38360035 2.38360035 2.32136473 3.30181027 2.75 6.5625 C3.78976538 12.24820117 6.12797288 16.70186463 10 21 C12.56212562 22.59333724 13.52431617 23.04640818 16.5625 22.75 C19.22069209 22.05904947 19.22069209 22.05904947 22 20 C24.1875 20.375 24.1875 20.375 26 21 C24.71372289 22.17260611 23.42080217 23.3379283 22.125 24.5 C21.40570313 25.1496875 20.68640625 25.799375 19.9453125 26.46875 C18 28 18 28 16 28 C16 27.34 16 26.68 16 26 C12.47618313 28.54604597 12.47618313 28.54604597 10 32 C9.34 32 8.68 32 8 32 C7.67 32.99 7.34 33.98 7 35 C2.59061785 34.49607061 0.21156184 33.0379639 -3 30 C-5.56572741 26.26803286 -5.42228291 22.1869388 -5.4375 17.8125 C-5.44136719 17.05525635 -5.44523437 16.2980127 -5.44921875 15.51782227 C-5.32239906 9.36112283 -3.89348173 4.88075745 0 0 Z " fill="#212121" transform="translate(26,22)"/>
<path d="M0 0 C4.62386616 1.70100776 9.47130909 2.70628498 14.26171875 3.83203125 C14.26171875 4.49203125 14.26171875 5.15203125 14.26171875 5.83203125 C17.56171875 6.82203125 20.86171875 7.81203125 24.26171875 8.83203125 C23.27171875 9.16203125 22.28171875 9.49203125 21.26171875 9.83203125 C20.52848079 11.84711483 20.52848079 11.84711483 20.26171875 13.83203125 C19.854375 13.38730469 19.44703125 12.94257813 19.02734375 12.484375 C8.41080473 2.54898561 -10.28245429 0.63376377 -24.11328125 0.64453125 C-24.97727539 0.64388672 -25.84126953 0.64324219 -26.73144531 0.64257812 C-35.1597133 0.71037406 -43.40614625 1.6232241 -51.73828125 2.83203125 C-49.73828125 -0.16796875 -49.73828125 -0.16796875 -46.45703125 -1.1171875 C-45.0541235 -1.38167011 -43.6474158 -1.6264687 -42.23828125 -1.85546875 C-41.48869141 -1.98211914 -40.73910156 -2.10876953 -39.96679688 -2.23925781 C-27.17105332 -4.209059 -12.10840614 -4.98581429 0 0 Z " fill="#131314" transform="translate(114.73828125,239.16796875)"/>
<path d="M0 0 C4.74915095 3.07298002 7.75102871 6.33867932 9 12 C9.66961441 17.60244055 9.98103396 22.24090462 7.1875 27.25 C1.3555642 30.45184711 -4.57171356 29.42398652 -10.9375 28.3125 C-14.69111294 26.70380874 -16.1341473 25.65396153 -18 22 C-18.71600109 15.64240414 -16.29269983 10.96946263 -12.609375 5.953125 C-8.86136399 1.40456794 -6.07973446 -1.11668592 0 0 Z M-11 8 C-13.92306227 12.38009638 -15.99679722 16.64221495 -15 22 C-13.36482528 23.8727078 -13.36482528 23.8727078 -11 25 C-10.278125 25.391875 -9.55625 25.78375 -8.8125 26.1875 C-4.92893648 27.30941835 -1.00343003 27.69722658 3 27 C4.86232836 25.92445714 4.86232836 25.92445714 6 24 C7.01109844 17.21969279 6.47754205 10.92470126 3 5 C-2.78398436 1.14401043 -6.62526538 3.02598667 -11 8 Z " fill="#311726" transform="translate(93,160)"/>
<path d="M0 0 C0.66 0 1.32 0 2 0 C1.9292627 0.58773193 1.85852539 1.17546387 1.78564453 1.78100586 C1.04961019 8.39431969 0.84855667 14.91200136 0.875 21.5625 C0.87113281 22.53896484 0.86726562 23.51542969 0.86328125 24.52148438 C0.87118318 30.42817779 1.238307 36.14221811 2 42 C2.66 42 3.32 42 4 42 C4.1959375 42.61746094 4.391875 43.23492187 4.59375 43.87109375 C7.92290871 53.29892683 13.50755985 59.82168284 22 65 C22.495 65.99 22.495 65.99 23 67 C17.35502376 67 14.23212953 64.33004291 10.3125 60.62890625 C-1.52271837 47.17434212 -3.98708487 31.7008881 -3.19042969 14.33789062 C-2.78710301 9.38627999 -1.60501752 4.70040844 0 0 Z " fill="#2A2A2A" transform="translate(130,112)"/>
<path d="M0 0 C0.33 1.32 0.66 2.64 1 4 C0.34 4 -0.32 4 -1 4 C-1.33 4.99 -1.66 5.98 -2 7 C-3.2065625 7.9590625 -3.2065625 7.9590625 -4.4375 8.9375 C-6.89305131 10.91391935 -7.87039721 12.12464744 -9 15 C-9.66 15 -10.32 15 -11 15 C-11.433125 16.3921875 -11.433125 16.3921875 -11.875 17.8125 C-13 21 -13 21 -15 24 C-15.16972473 26.85080018 -15.23291579 29.59064735 -15.1875 32.4375 C-15.1865332 33.5831543 -15.1865332 33.5831543 -15.18554688 34.75195312 C-15.15522163 39.95270856 -15.15522163 39.95270856 -14 45 C-12.68352881 45.69937532 -11.34977849 46.36729133 -10 47 C-9.67 47.99 -9.34 48.98 -9 50 C-9.66 50.66 -10.32 51.32 -11 52 C-16.93972004 46.38134591 -20.05585144 41.63674626 -20.3125 33.4375 C-20.13903774 22.68283977 -14.98440266 13.91398143 -8 6 C-5.46273058 3.76478646 -2.85937584 1.80231935 0 0 Z " fill="#030303" transform="translate(37,7)"/>
<path d="M0 0 C0 0.66 0 1.32 0 2 C-1.32 2 -2.64 2 -4 2 C-4.33 2.99 -4.66 3.98 -5 5 C-6.83967889 5.91983944 -8.68370166 6.83185689 -10.546875 7.703125 C-16.70508343 10.95873837 -22.3085988 15.43931187 -27.5 20.0625 C-28.325 20.701875 -29.15 21.34125 -30 22 C-30.99 21.67 -31.98 21.34 -33 21 C-32.41509121 14.85845775 -31.45933748 8.99320151 -30 3 C-28.0625 3.375 -28.0625 3.375 -26 4 C-25.67 4.66 -25.34 5.32 -25 6 C-24.01 6.33 -23.02 6.66 -22 7 C-22 7.66 -22 8.32 -22 9 C-17.14039191 7.17071787 -12.58732052 4.79600784 -7.99609375 2.390625 C-5.12422898 0.92072432 -3.27446133 0 0 0 Z " fill="#343436" transform="translate(62,241)"/>
<path d="M0 0 C17.96557682 2.98917917 35.19834655 12.31618648 49 24 C49.495 24.99 49.495 24.99 50 26 C49.34 26.99 48.68 27.98 48 29 C47.57332031 28.5875 47.14664063 28.175 46.70703125 27.75 C32.63089311 14.74771158 13.82596549 6.24469064 -5 3 C-4.360625 2.690625 -3.72125 2.38125 -3.0625 2.0625 C-1.06389179 1.1654837 -1.06389179 1.1654837 0 0 Z " fill="#141414" transform="translate(157,12)"/>
<path d="M0 0 C3.45542157 0.3960533 6.36523254 0.798732 9.5390625 2.26953125 C10.9765625 4.08203125 10.9765625 4.08203125 11.5390625 7.01953125 C10.9765625 10.08203125 10.9765625 10.08203125 8.8515625 12.45703125 C5.40180837 14.40689228 3.86034254 14.97206418 -0.0234375 14.08203125 C-2.26963593 12.02540967 -3.77909402 9.85876068 -5.0234375 7.08203125 C-4.94242884 3.43664156 -4.20894245 0.1706328 0 0 Z " fill="#0D0D0D" transform="translate(93.0234375,137.91796875)"/>
<path d="M0 0 C0.66 0.33 1.32 0.66 2 1 C2.10731538 10.39605802 1.99263429 19.64087671 1 29 C3.64 30.32 6.28 31.64 9 33 C4.59232396 34.10191901 3.1077065 33.58706842 -1 32 C-0.42978066 37.3503559 0.20734361 42.67787852 1 48 C0.34 48 -0.32 48 -1 48 C-4.09604729 42.11112655 -4.28174571 37.68654145 -3.75 31.125 C-3.69714844 30.25875 -3.64429687 29.3925 -3.58984375 28.5 C-3.16272321 22.16272321 -3.16272321 22.16272321 -2 21 C-1.77329092 19.44246949 -1.60564908 17.87622641 -1.46484375 16.30859375 C-1.37783203 15.36435547 -1.29082031 14.42011719 -1.20117188 13.44726562 C-1.11416016 12.45404297 -1.02714844 11.46082031 -0.9375 10.4375 C-0.84662109 9.44041016 -0.75574219 8.44332031 -0.66210938 7.41601562 C-0.43741186 4.94434298 -0.21689649 2.47236744 0 0 Z " fill="#0B0B0C" transform="translate(69,175)"/>
<path d="M0 0 C-1.22617347 3.67852042 -2.97834955 4.37560637 -6.08984375 6.46484375 C-8.85813829 8.68966942 -10.67699865 11.39371708 -12.640625 14.328125 C-14 16 -14 16 -17 17 C-21.78000114 23.13530634 -23.4460434 30.53342806 -25 38 C-25.33 37.34 -25.66 36.68 -26 36 C-26.66 36 -27.32 36 -28 36 C-27.38132423 24.86383622 -21.6400978 15.90974831 -14 8 C-4.50649351 0 -4.50649351 0 0 0 Z " fill="#1D1D1E" transform="translate(175,296)"/>
<path d="M0 0 C0.43570313 0.37511719 0.87140625 0.75023437 1.3203125 1.13671875 C1.91585937 1.64847656 2.51140625 2.16023438 3.125 2.6875 C3.99511719 3.43580078 3.99511719 3.43580078 4.8828125 4.19921875 C5.58148438 4.79347656 6.28015625 5.38773437 7 6 C8.35544922 7.22589844 8.35544922 7.22589844 9.73828125 8.4765625 C13.19115213 11.34655847 16.93382202 12.99516608 21.0625 14.6875 C21.75666016 14.98205078 22.45082031 15.27660156 23.16601562 15.58007812 C26.75922001 17.0985738 30.37275415 18.5646571 34 20 C34 20.66 34 21.32 34 22 C25.79008201 21.1124413 18.30707939 17.6535397 11 14 C10.01 14 9.02 14 8 14 C6.98133771 12.34467377 5.98189187 10.67739862 5 9 C4.01 8.67 3.02 8.34 2 8 C1.26953125 6.15234375 1.26953125 6.15234375 0.8125 3.9375 C0.65394531 3.20402344 0.49539062 2.47054688 0.33203125 1.71484375 C0.22246094 1.14894531 0.11289062 0.58304687 0 0 Z " fill="#0B0B0C" transform="translate(37,322)"/>
<path d="M0 0 C1.32 0.99 2.64 1.98 4 3 C2.98421875 3.4846875 1.9684375 3.969375 0.921875 4.46875 C-8.6821485 9.11974773 -17.81335905 14.05068724 -26.1875 20.75 C-28 22 -28 22 -30.25 21.6875 C-30.8275 21.460625 -31.405 21.23375 -32 21 C-31.34 21 -30.68 21 -30 21 C-30 20.01 -30 19.02 -30 18 C-29.071875 17.484375 -28.14375 16.96875 -27.1875 16.4375 C-22.79002088 13.94138993 -18.58110545 11.16497406 -14.35546875 8.390625 C-12 7 -12 7 -10 7 C-10 6.34 -10 5.68 -10 5 C-9.44570312 4.80664062 -8.89140625 4.61328125 -8.3203125 4.4140625 C-7.59585938 4.15367188 -6.87140625 3.89328125 -6.125 3.625 C-5.04605469 3.24214844 -5.04605469 3.24214844 -3.9453125 2.8515625 C-1.81842006 2.06122217 -1.81842006 2.06122217 0 0 Z " fill="#101012" transform="translate(81,20)"/>
<path d="M0 0 C0 1.65 0 3.3 0 5 C0.66 5 1.32 5 2 5 C2.1959375 5.61746094 2.391875 6.23492187 2.59375 6.87109375 C5.92290871 16.29892683 11.50755985 22.82168284 20 28 C20.33 28.66 20.66 29.32 21 30 C15.36264505 30 12.24744652 27.33319987 8.3203125 23.65234375 C5.62925546 20.57620279 3.53823634 17.40673142 1.5 13.875 C1.16178223 13.28952393 0.82356445 12.70404785 0.47509766 12.10083008 C-1.52591742 8.4254012 -2.54562642 5.15246962 -3 1 C-1 0 -1 0 0 0 Z " fill="#0E0E0E" transform="translate(132,149)"/>
<path d="M0 0 C0.66 0.33 1.32 0.66 2 1 C2 11.56 2 22.12 2 33 C1.01 32.67 0.02 32.34 -1 32 C-2.15679408 26.81144681 -2.1838408 21.85736154 -2.1875 16.5625 C-2.20586914 15.1693457 -2.20586914 15.1693457 -2.22460938 13.74804688 C-2.23526569 8.75734148 -1.97535241 4.6768225 0 0 Z " fill="#010101" transform="translate(11,180)"/>
<path d="M0 0 C2.64378906 -0.33576726 4.98186669 -0.4744544 7.625 -0.4375 C8.35050049 -0.43137695 9.07600098 -0.42525391 9.82348633 -0.41894531 C15.3525817 -0.25740303 19.48491682 0.66226763 24 4 C24.94875 4.66 25.8975 5.32 26.875 6 C28.97741008 7.9787389 30.1417029 9.25344928 31 12 C30.625 14.25 30.625 14.25 30 16 C28.09332908 14.27491679 26.99971948 12.99937295 25.9375 10.625 C22.79484395 6.36720793 19.03987569 4.48413517 14 3 C8.67586993 2.43673546 3.3340051 2.70219574 -2 3 C-1.34 2.01 -0.68 1.02 0 0 Z " fill="#0F0F0F" transform="translate(60,67)"/>
<path d="M0 0 C0 0.66 0 1.32 0 2 C-1.32 2 -2.64 2 -4 2 C-4.33 2.99 -4.66 3.98 -5 5 C-6.83656498 5.91828249 -8.67767242 6.82845575 -10.5390625 7.6953125 C-16.14095095 10.66520257 -21.30361017 14.72184582 -26.140625 18.80859375 C-26.75421875 19.20175781 -27.3678125 19.59492188 -28 20 C-28.99 19.67 -29.98 19.34 -31 19 C-22.96597827 10.60713859 -22.96597827 10.60713859 -18 8 C-16.70554798 7.17099988 -15.41415671 6.33721097 -14.125 5.5 C-9.7058106 2.73487393 -5.33060391 0 0 0 Z " fill="#121213" transform="translate(62,241)"/>
<path d="M0 0 C2.24407244 3.36610866 2.18741293 4.51016127 2.25 8.4375 C2.7274832 15.4547977 5.04822018 21.19473053 9 27 C10.65910053 28.34273638 12.3245491 29.67772172 14 31 C14.3125 33.75 14.3125 33.75 14 36 C5.74991981 30.10708558 0.76106307 20.66372074 -2 11 C-2.1015625 8.20703125 -2.1015625 8.20703125 -2 6 C-1.34 7.32 -0.68 8.64 0 10 C0 6.7 0 3.4 0 0 Z " fill="#1D1C1E" transform="translate(9,112)"/>
<path d="M0 0 C0 0.66 0 1.32 0 2 C-10.56263107 6.52956071 -21.72970158 6.25744336 -33 6 C-33 5.67 -33 5.34 -33 5 C-30.36 4.67 -27.72 4.34 -25 4 C-25 3.34 -25 2.68 -25 2 C-8.29157175 -0.29612756 -8.29157175 -0.29612756 0 0 Z " fill="#222424" transform="translate(197,218)"/>
<path d="M0 0 C0.33 0 0.66 0 1 0 C1.144375 0.78375 1.28875 1.5675 1.4375 2.375 C1.87798925 4.96421018 1.87798925 4.96421018 3 7 C0.88188261 13.91531476 -1.79146108 21.08174215 -6 27 C-8.75 28.4375 -8.75 28.4375 -11 29 C-9.60210204 25.31463264 -7.91983459 21.91114102 -6.0625 18.4375 C-3.02540858 12.45985064 -1.32422291 6.55141861 0 0 Z " fill="#0F0F0F" transform="translate(254,161)"/>
<path d="M0 0 C0 3.68563771 -1.27136406 4.69391592 -3.7109375 7.3046875 C-7.10905321 11.77372452 -7.3841814 16.56151329 -7.625 22 C-7.68300781 23.04800781 -7.68300781 23.04800781 -7.7421875 24.1171875 C-7.93397588 27.74746758 -8.04259869 31.36491154 -8 35 C-11.87732227 29.18401659 -11.61205162 22.81641048 -11 16 C-9.49124984 10.33241521 -7.19180837 5.19180837 -3 1 C-2.01 0.67 -1.02 0.34 0 0 Z " fill="#0C0C0C" transform="translate(18,90)"/>
<path d="M0 0 C0.99 0.33 1.98 0.66 3 1 C4 3.0625 4 3.0625 5 6 C5.26039062 6.59167969 5.52078125 7.18335938 5.7890625 7.79296875 C8.00123371 12.97193032 8.34968878 17.40497951 8 23 C7.67 23 7.34 23 7 23 C6.67 25.64 6.34 28.28 6 31 C5.67 31 5.34 31 5 31 C5 25.06 5 19.12 5 13 C4.34 13 3.68 13 3 13 C2.49487756 11.39743892 1.99608373 9.79288208 1.5 8.1875 C1.2215625 7.29417969 0.943125 6.40085938 0.65625 5.48046875 C0 3 0 3 0 0 Z " fill="#1D1D1F" transform="translate(63,153)"/>
<path d="M0 0 C1.32 0.66 2.64 1.32 4 2 C4 4 4 6 4 8 C1.75 9.8125 1.75 9.8125 -1 11 C-3.25 10.625 -3.25 10.625 -5 9 C-5.75 5.375 -5.75 5.375 -6 2 C-3.69 2.33 -1.38 2.66 1 3 C0.67 2.01 0.34 1.02 0 0 Z " fill="#373737" transform="translate(98,139)"/>
<path d="M0 0 C1.32 0 2.64 0 4 0 C3.52433594 0.84304687 3.52433594 0.84304687 3.0390625 1.703125 C1.93125475 4.15196317 1.61024601 6.08387855 1.375 8.75 C1.30023438 9.54921875 1.22546875 10.3484375 1.1484375 11.171875 C1.09945312 11.77515625 1.05046875 12.3784375 1 13 C2.98 13.99 4.96 14.98 7 16 C7 16.99 7 17.98 7 19 C3.34986366 18.75112707 1.42209109 18.34633115 -1.4375 16 C-3.61505272 11.81909878 -3.14137414 8.49315596 -2 4 C-1.37353985 2.64731012 -0.71715037 1.3068732 0 0 Z " fill="#33222C" transform="translate(78,169)"/>
<path d="M0 0 C3.15426303 3.01712115 3.96572858 4.23008847 4.16796875 8.7734375 C4.17995173 10.30725868 4.18622602 11.84113255 4.1875 13.375 C4.19974609 14.14328125 4.21199219 14.9115625 4.22460938 15.703125 C4.24272755 22.68466361 4.24272755 22.68466361 2 26 C1.34 26 0.68 26 0 26 C0.08378906 24.7934375 0.16757813 23.586875 0.25390625 22.34375 C0.35716289 20.72919169 0.46000536 19.11460686 0.5625 17.5 C0.61857422 16.70851562 0.67464844 15.91703125 0.73242188 15.1015625 C1.05189484 9.90480221 0.79686914 5.14718438 0 0 Z " fill="#131214" transform="translate(215,128)"/>
<path d="M0 0 C0 0.66 0 1.32 0 2 C-0.86367187 2.27714844 -1.72734375 2.55429687 -2.6171875 2.83984375 C-6.90637769 4.31084777 -11.02974668 6.09290666 -15.1953125 7.87890625 C-17.47554037 8.79036224 -19.60576194 9.49022204 -22 10 C-22 8.02 -22 6.04 -22 4 C-21.67 4.99 -21.34 5.98 -21 7 C-18.69 6.34 -16.38 5.68 -14 5 C-14 4.34 -14 3.68 -14 3 C-12.68 3 -11.36 3 -10 3 C-10 2.34 -10 1.68 -10 1 C-6.61981469 -0.04005702 -3.5219721 -0.08004482 0 0 Z " fill="#09090B" transform="translate(198,286)"/>
<path d="M0 0 C6.68646185 0.26907291 11.55784518 0.94733152 17 5 C17.9375 7.25 17.9375 7.25 18 9 C16.68 8.67 15.36 8.34 14 8 C14 7.34 14 6.68 14 6 C7.35751464 4.08389845 0.88940671 3.43632909 -6 3 C-6 2.67 -6 2.34 -6 2 C-4.02 1.67 -2.04 1.34 0 1 C0 0.67 0 0.34 0 0 Z " fill="#1B1B1B" transform="translate(162,81)"/>
<path d="M0 0 C0.99 0.33 1.98 0.66 3 1 C3.17942163 4.94727588 3.09350689 7.5980513 1 11 C-0.32 11 -1.64 11 -3 11 C-3.36923077 4.6 -3.36923077 4.6 -1.5 1.5625 C-1.005 1.046875 -0.51 0.53125 0 0 Z " fill="#DADADC" transform="translate(153,133)"/>
<path d="M0 0 C0.66 0 1.32 0 2 0 C1.69163058 3.22957498 1.37757181 6.45857255 1.0625 9.6875 C0.97548828 10.59951172 0.88847656 11.51152344 0.79882812 12.45117188 C0.71181641 13.33740234 0.62480469 14.22363281 0.53515625 15.13671875 C0.456604 15.94842529 0.37805176 16.76013184 0.29711914 17.59643555 C-0.01211634 20.09801594 -0.47634232 22.53516441 -1 25 C-1.33 25 -1.66 25 -2 25 C-2.05421223 21.95809137 -2.09377548 18.91716001 -2.125 15.875 C-2.15013672 14.59109375 -2.15013672 14.59109375 -2.17578125 13.28125 C-2.21306681 8.43412707 -1.89580643 4.55292095 0 0 Z " fill="#0E0E0E" transform="translate(130,112)"/>
<path d="M0 0 C4.56454251 0.54339792 7.9728176 1.79463821 12 4 C12 4.66 12 5.32 12 6 C13.98 5.34 15.96 4.68 18 4 C17.67 4.99 17.34 5.98 17 7 C16.01 7.33 15.02 7.66 14 8 C14 8.66 14 9.32 14 10 C12.68 9.34 11.36 8.68 10 8 C10 7.34 10 6.68 10 6 C9.4225 5.87625 8.845 5.7525 8.25 5.625 C5.97664233 4.99351176 4.0746471 4.11141809 2 3 C2 2.34 2 1.68 2 1 C1.34 0.67 0.68 0.34 0 0 Z " fill="#08080A" transform="translate(50,146)"/>
<path d="M0 0 C0.90878906 0.144375 1.81757813 0.28875 2.75390625 0.4375 C11.93215632 1.79305693 20.72090867 2.23691297 30 2 C30 2.33 30 2.66 30 3 C25.11707076 4.2886906 20.31761193 4.075435 15.3125 4 C13.60032296 3.97454012 11.88807291 3.95349027 10.17578125 3.9375 C9.42208252 3.92589844 8.66838379 3.91429688 7.8918457 3.90234375 C5.91021272 3.8780143 5.91021272 3.8780143 4 5 C3.67 5.66 3.34 6.32 3 7 C0 2.25 0 2.25 0 0 Z " fill="#313133" transform="translate(227,100)"/>
<path d="M0 0 C0.99 0.495 0.99 0.495 2 1 C2 1.66 2 2.32 2 3 C2.66 3 3.32 3 4 3 C4 3.66 4 4.32 4 5 C4.66 5 5.32 5 6 5 C7.7143618 6.95927063 9.38405168 8.95880212 11 11 C10.67 11.66 10.34 12.32 10 13 C5.13045212 11.60870061 2.83659727 9.13332746 0 5 C-0.3125 2.125 -0.3125 2.125 0 0 Z " fill="#121212" transform="translate(133,284)"/>
<path d="M0 0 C0.33 0 0.66 0 1 0 C1.33 6.27 1.66 12.54 2 19 C1.01 18.67 0.02 18.34 -1 18 C-2.27959591 15.44080818 -2.16816536 13.54515972 -2.1875 10.6875 C-2.20167969 9.74261719 -2.21585938 8.79773438 -2.23046875 7.82421875 C-1.98824335 4.85593118 -1.24026607 2.69132835 0 0 Z " fill="#060606" transform="translate(131,264)"/>
<path d="M0 0 C0.99 0 1.98 0 3 0 C3.36923077 6.4 3.36923077 6.4 1.5 9.4375 C1.005 9.953125 0.51 10.46875 0 11 C-0.99 10.67 -1.98 10.34 -3 10 C-2.25 3.375 -2.25 3.375 0 0 Z " fill="#E3E3E4" transform="translate(68,112)"/>
<path d="M0 0 C0.33 0 0.66 0 1 0 C1.37369729 7.47394574 0.04061541 13.82140651 -2 21 C-2.66 21 -3.32 21 -4 21 C-2.50462963 2.50462963 -2.50462963 2.50462963 0 0 Z " fill="#0C0C0E" transform="translate(94,99)"/>
<path d="M0 0 C-1.30021775 3.90065324 -3.7419237 5.36040785 -6.9375 7.6875 C-7.48857422 8.10322266 -8.03964844 8.51894531 -8.60742188 8.94726562 C-12.73287408 12 -12.73287408 12 -15 12 C-14.70323201 8.86273835 -14.00348283 8.00310845 -11.6015625 5.859375 C-10.61929688 5.16328125 -9.63703125 4.4671875 -8.625 3.75 C-7.64789063 3.04359375 -6.67078125 2.3371875 -5.6640625 1.609375 C-3 0 -3 0 0 0 Z " fill="#181819" transform="translate(175,296)"/>
<path d="M0 0 C-3.38168431 3.68006822 -6.42521756 5.9785845 -11 8 C-11.66 7.01 -12.32 6.02 -13 5 C-9.76220634 1.00037254 -4.97776602 -1.65925534 0 0 Z " fill="#E5E4E6" transform="translate(176,293)"/>
<path d="M0 0 C0.87840996 3.09720845 0.99435406 4.90645403 0 8 C0.66 8 1.32 8 2 8 C2 8.66 2 9.32 2 10 C5.83724172 10.90413673 9.37502274 11.10576898 13.3125 11.0625 C14.38113281 11.05347656 15.44976562 11.04445312 16.55078125 11.03515625 C17.76314453 11.01775391 17.76314453 11.01775391 19 11 C19 11.66 19 12.32 19 13 C15.51734124 14.74132938 11.80767143 14.45933814 8 14 C4.80964856 12.82629211 1.43716908 11.43716908 -1 9 C-0.91062197 7.47480724 -0.75462854 5.95318071 -0.5625 4.4375 C-0.46066406 3.61121094 -0.35882813 2.78492188 -0.25390625 1.93359375 C-0.17011719 1.29550781 -0.08632812 0.65742188 0 0 Z " fill="#AF146C" transform="translate(79,173)"/>
<path d="M0 0 C4.49108752 1.42860919 7.46169316 3.93077292 10.8125 7.125 C11.31458984 7.59292969 11.81667969 8.06085938 12.33398438 8.54296875 C13.56189455 9.68901825 14.78178215 10.84365311 16 12 C15.34 12.66 14.68 13.32 14 14 C11.66061394 12.04852234 9.32849976 10.08939072 7 8.125 C6.33226562 7.56941406 5.66453125 7.01382813 4.9765625 6.44140625 C4.34492188 5.90644531 3.71328125 5.37148437 3.0625 4.8203125 C2.47597656 4.32805176 1.88945312 3.83579102 1.28515625 3.32861328 C0 2 0 2 0 0 Z " fill="#0C0C0D" transform="translate(179,87)"/>
<path d="M0 0 C7.48291572 6.15034169 7.48291572 6.15034169 10 10 C9.67 10.66 9.34 11.32 9 12 C9.66 12.33 10.32 12.66 11 13 C10.01 13.33 9.02 13.66 8 14 C7.566875 13.195625 7.13375 12.39125 6.6875 11.5625 C5.19525998 8.72153646 5.19525998 8.72153646 2 8 C1.26953125 6.15234375 1.26953125 6.15234375 0.8125 3.9375 C0.65394531 3.20402344 0.49539062 2.47054688 0.33203125 1.71484375 C0.22246094 1.14894531 0.11289062 0.58304687 0 0 Z " fill="#1B1D1C" transform="translate(37,322)"/>
<path d="M0 0 C0.99 0.33 1.98 0.66 3 1 C1.61211198 2.30020011 0.21430742 3.5898193 -1.1875 4.875 C-1.96480469 5.59429687 -2.74210937 6.31359375 -3.54296875 7.0546875 C-5.97689776 8.9817092 -8.07536646 10.01300111 -11 11 C-10.04370372 7.78336707 -9.43966501 6.30082343 -6.625 4.375 C-5.325625 3.694375 -5.325625 3.694375 -4 3 C-3.29875 2.4225 -2.5975 1.845 -1.875 1.25 C-0.946875 0.63125 -0.946875 0.63125 0 0 Z " fill="#191919" transform="translate(78,142)"/>
<path d="M0 0 C2.40119059 3.60178588 2.43771322 6.50866369 2.625 10.6875 C2.66367188 11.38939453 2.70234375 12.09128906 2.7421875 12.81445312 C2.8362334 14.54254655 2.9191968 16.27123675 3 18 C2.34 18.33 1.68 18.66 1 19 C-2.42857143 10.57142857 -2.42857143 10.57142857 -2 6 C-1.34 7.32 -0.68 8.64 0 10 C0 6.7 0 3.4 0 0 Z " fill="#232323" transform="translate(9,112)"/>
<path d="M0 0 C0.99 0.33 1.98 0.66 3 1 C1.6875 3 1.6875 3 -1 5 C-4.71693422 5.53582511 -8.29179093 5.6053106 -12 5 C-13.32 4.01 -14.64 3.02 -16 2 C-10.72 2 -5.44 2 0 2 C0 1.34 0 0.68 0 0 Z " fill="#1B0E14" transform="translate(98,184)"/>
<path d="M0 0 C-0.33 0.99 -0.66 1.98 -1 3 C-3.72265625 3.94921875 -3.72265625 3.94921875 -7.0625 4.6875 C-8.71958984 5.06455078 -8.71958984 5.06455078 -10.41015625 5.44921875 C-11.69212891 5.72185547 -11.69212891 5.72185547 -13 6 C-11.3515625 2.15625 -11.3515625 2.15625 -8.1875 0.75 C-5.30183036 0.07101891 -2.94417035 -0.17318649 0 0 Z " fill="#171717" transform="translate(57,69)"/>
<path d="M0 0 C0.66 0.33 1.32 0.66 2 1 C2 2.32 2 3.64 2 5 C0.68 5 -0.64 5 -2 5 C-2 5.66 -2 6.32 -2 7 C-3.98 7.33 -5.96 7.66 -8 8 C-7.25 6.0625 -7.25 6.0625 -6 4 C-3.875 3.25 -3.875 3.25 -2 3 C-2 2.34 -2 1.68 -2 1 C-1.34 0.67 -0.68 0.34 0 0 Z " fill="#323134" transform="translate(186,284)"/>
<path d="M0 0 C0.66 0.99 1.32 1.98 2 3 C1.58427734 3.81404297 1.58427734 3.81404297 1.16015625 4.64453125 C0.79792969 5.35996094 0.43570312 6.07539062 0.0625 6.8125 C-0.29714844 7.52019531 -0.65679688 8.22789063 -1.02734375 8.95703125 C-2.82484737 12.73251074 -3.25133674 16.05347384 -3.5625 20.1875 C-3.64628906 21.27417969 -3.73007813 22.36085938 -3.81640625 23.48046875 C-3.87699219 24.31191406 -3.93757812 25.14335938 -4 26 C-4.33 26 -4.66 26 -5 26 C-7.54175475 16.38754568 -3.73107308 8.71665189 0 0 Z " fill="#A2A2A2" transform="translate(11,92)"/>
<path d="M0 0 C-1.32 0.33 -2.64 0.66 -4 1 C-4 1.66 -4 2.32 -4 3 C-5.4609375 4.5078125 -5.4609375 4.5078125 -7.375 6.125 C-8.00148438 6.66382813 -8.62796875 7.20265625 -9.2734375 7.7578125 C-11 9 -11 9 -13 9 C-10.91376881 2.17233428 -7.1449644 -0.66464785 0 0 Z " fill="#25101F" transform="translate(92,161)"/>
<path d="M0 0 C3.625 0.375 3.625 0.375 7 1 C7.33 1.99 7.66 2.98 8 4 C5.69 3.67 3.38 3.34 1 3 C0.67 4.32 0.34 5.64 0 7 C-0.33 6.01 -0.66 5.02 -1 4 C-1.66 4.99 -2.32 5.98 -3 7 C-2.25 2.25 -2.25 2.25 0 0 Z " fill="#1D1D1D" transform="translate(91,138)"/>
<path d="M0 0 C0 0.33 0 0.66 0 1 C-5.61 1.66 -11.22 2.32 -17 3 C-15 0 -15 0 -13 -0.75 C-8.60607324 -1.11616056 -4.36281438 -0.55064647 0 0 Z " fill="#202020" transform="translate(80,239)"/>
<path d="M0 0 C3.0390625 -0.29296875 3.0390625 -0.29296875 6.625 -0.1875 C7.81351563 -0.16042969 9.00203125 -0.13335937 10.2265625 -0.10546875 C11.14179687 -0.07066406 12.05703125 -0.03585938 13 0 C13.33 0.66 13.66 1.32 14 2 C6.08 2.495 6.08 2.495 -2 3 C-1.34 2.01 -0.68 1.02 0 0 Z " fill="#080808" transform="translate(60,67)"/>
<path d="M0 0 C1.03115279 3.26913624 0.9638984 5.86041348 0.5625 9.25 C0.46066406 10.14203125 0.35882813 11.0340625 0.25390625 11.953125 C0.12822266 12.96632813 0.12822266 12.96632813 0 14 C-0.99 13.67 -1.98 13.34 -3 13 C-3.27429625 7.60550707 -3.36055646 4.48074195 0 0 Z " fill="#111111" transform="translate(215,52)"/>
<path d="M0 0 C3.9492568 0.55105909 7.34920174 1.38935371 11 3 C10.01 3.33 9.02 3.66 8 4 C7.26676204 6.01508358 7.26676204 6.01508358 7 8 C6.5875 7.54625 6.175 7.0925 5.75 6.625 C3.93591905 4.94049626 2.24714373 4.00734029 0 3 C0 2.01 0 1.02 0 0 Z " fill="#242424" transform="translate(128,245)"/>
<path d="M0 0 C1.32 0.33 2.64 0.66 4 1 C3.07544441 2.508013 2.1349253 4.00624917 1.1875 5.5 C0.66542969 6.3353125 0.14335937 7.170625 -0.39453125 8.03125 C-0.92433594 8.6809375 -1.45414063 9.330625 -2 10 C-2.99 10 -3.98 10 -5 10 C-3.84414715 6.08788267 -2.64465038 3.1254959 0 0 Z " fill="#161618" transform="translate(22,154)"/>
<path d="M0 0 C0.99 0.33 1.98 0.66 3 1 C2.34 1 1.68 1 1 1 C1 1.66 1 2.32 1 3 C2.32 3.33 3.64 3.66 5 4 C0.82262526 5.59138085 -2.53160785 6.21278058 -7 6 C-5.75 4 -5.75 4 -4 2 C-2.68 2 -1.36 2 0 2 C0 1.34 0 0.68 0 0 Z " fill="#2E2E30" transform="translate(71,342)"/>
<path d="M0 0 C-0.33 0.99 -0.66 1.98 -1 3 C-5.29 3 -9.58 3 -14 3 C-14 2.34 -14 1.68 -14 1 C-4.58997722 -0.14806378 -4.58997722 -0.14806378 0 0 Z " fill="#070707" transform="translate(161,295)"/>
<path d="M0 0 C1.89575251 -0.02721176 3.79161979 -0.04649136 5.6875 -0.0625 C6.74324219 -0.07410156 7.79898438 -0.08570313 8.88671875 -0.09765625 C11.72410262 -0.00865425 14.2438919 0.35060162 17 1 C16.67 1.99 16.34 2.98 16 4 C14.08249714 3.91256669 12.16593335 3.8043811 10.25 3.6875 C9.18265625 3.62949219 8.1153125 3.57148438 7.015625 3.51171875 C3.8178932 2.96909846 2.37401309 2.14928855 0 0 Z " fill="#111113" transform="translate(36,144)"/>
<path d="M0 0 C0.99 0 1.98 0 3 0 C6.14907485 3.89003364 7.526508 7.02833396 8 12 C4.74451247 8.97704729 2.31022942 5.79537691 0 2 C0 1.34 0 0.68 0 0 Z " fill="#0E0F0E" transform="translate(30,314)"/>
<path d="M0 0 C0.90685547 0.29970703 0.90685547 0.29970703 1.83203125 0.60546875 C0.54575414 1.77807486 -0.74716658 2.94339705 -2.04296875 4.10546875 C-2.76226562 4.75515625 -3.4815625 5.40484375 -4.22265625 6.07421875 C-6.16796875 7.60546875 -6.16796875 7.60546875 -8.16796875 7.60546875 C-7.83582724 4.50548129 -7.11346755 3.55096755 -4.85546875 1.29296875 C-2.16796875 -0.39453125 -2.16796875 -0.39453125 0 0 Z " fill="#1B1B1C" transform="translate(50.16796875,42.39453125)"/>
<path d="M0 0 C0.66 0.33 1.32 0.66 2 1 C-0.99481865 5.22797927 -0.99481865 5.22797927 -3 7 C-6.3125 7.375 -6.3125 7.375 -9 7 C-7.68 5.02 -6.36 3.04 -5 1 C-4.67 1.66 -4.34 2.32 -4 3 C-2.68 2.01 -1.36 1.02 0 0 Z " fill="#282729" transform="translate(164,305)"/>
<path d="M0 0 C0 0.66 0 1.32 0 2 C-1.32 2 -2.64 2 -4 2 C-4.33 2.99 -4.66 3.98 -5 5 C-8.0625 6.1875 -8.0625 6.1875 -11 7 C-11.33 6.01 -11.66 5.02 -12 4 C-10.56570999 3.32645501 -9.12742943 2.66140299 -7.6875 2 C-6.88699219 1.62875 -6.08648437 1.2575 -5.26171875 0.875 C-3 0 -3 0 0 0 Z " fill="#0D0D0E" transform="translate(62,241)"/>
<path d="M0 0 C0.66 0 1.32 0 2 0 C1.49701212 4.40114397 -0.08772731 6.71195019 -3 10 C-3.99 9.67 -4.98 9.34 -6 9 C-5.071875 7.88625 -5.071875 7.88625 -4.125 6.75 C-2.39562719 4.51198812 -1.13893339 2.56260013 0 0 Z " fill="#0F0F0F" transform="translate(84,132)"/>
<path d="M0 0 C4.43458973 1.3937282 6.87378374 3.60582235 10 7 C6.4257023 6.67506385 4.44287547 6.36129314 1.625 4.0625 C0 2 0 2 0 0 Z " fill="#0F0F0F" transform="translate(143,172)"/>
<path d="M0 0 C1.2375 0.1546875 1.2375 0.1546875 2.5 0.3125 C3.16 1.3025 3.82 2.2925 4.5 3.3125 C5.49 3.9725 6.48 4.6325 7.5 5.3125 C3.1822542 4.80452991 -0.53302114 4.11567221 -4.5 2.3125 C-2.5 0.3125 -2.5 0.3125 0 0 Z " fill="#212121" transform="translate(106.5,236.6875)"/>
<path d="M0 0 C1.32 0 2.64 0 4 0 C3.69320312 0.56203125 3.38640625 1.1240625 3.0703125 1.703125 C1.97042415 4.06346934 1.39904149 6.20465562 0.875 8.75 C0.70742187 9.54921875 0.53984375 10.3484375 0.3671875 11.171875 C0.24601562 11.77515625 0.12484375 12.3784375 0 13 C-0.33 13 -0.66 13 -1 13 C-1.2236337 11.58566794 -1.42826476 10.16832382 -1.625 8.75 C-1.74101563 7.96109375 -1.85703125 7.1721875 -1.9765625 6.359375 C-2.00319395 3.67847541 -1.36592084 2.27305911 0 0 Z " fill="#41152B" transform="translate(78,169)"/>
<path d="M0 0 C1.66926454 0.97473126 3.33535642 1.95489789 5 2.9375 C6.3921875 3.75541016 6.3921875 3.75541016 7.8125 4.58984375 C8.534375 5.05519531 9.25625 5.52054687 10 6 C10 6.33 10 6.66 10 7 C6.5173782 7.39801392 5.19200764 7.12373826 2.1875 5.1875 C1.465625 4.465625 0.74375 3.74375 0 3 C0 2.01 0 1.02 0 0 Z " fill="#141315" transform="translate(231,105)"/>
<path d="M0 0 C0.66 0 1.32 0 2 0 C2 3.96 2 7.92 2 12 C1.01 12 0.02 12 -1 12 C-0.67 8.04 -0.34 4.08 0 0 Z " fill="#2A2228" transform="translate(100,172)"/>
<path d="M0 0 C4.95 0.99 4.95 0.99 10 2 C9.01 2.495 9.01 2.495 8 3 C8 3.66 8 4.32 8 5 C2.25 4.125 2.25 4.125 0 3 C0 2.01 0 1.02 0 0 Z " fill="#202020" transform="translate(154,179)"/>
<path d="M0 0 C0.33 0.99 0.66 1.98 1 3 C3.97 2.01 6.94 1.02 10 0 C10 0.66 10 1.32 10 2 C3.375 6 3.375 6 0 6 C0 4.02 0 2.04 0 0 Z " fill="#020203" transform="translate(176,290)"/>
<path d="M0 0 C0 0.99 0 1.98 0 3 C-3.63 3.66 -7.26 4.32 -11 5 C-10.67 4.34 -10.34 3.68 -10 3 C-9.01 3 -8.02 3 -7 3 C-7 2.34 -7 1.68 -7 1 C-5.5459375 1.0309375 -5.5459375 1.0309375 -4.0625 1.0625 C-1.12534105 1.35618499 -1.12534105 1.35618499 0 0 Z " fill="#101010" transform="translate(209,214)"/>
<path d="M0 0 C0.33 0.66 0.66 1.32 1 2 C0.67 2.66 0.34 3.32 0 4 C0.66 4 1.32 4 2 4 C0.25 9.75 0.25 9.75 -2 12 C-3.12377697 8.69564916 -2.89554742 6.9493138 -1.5625 3.75 C-1.27503906 3.04359375 -0.98757812 2.3371875 -0.69140625 1.609375 C-0.46324219 1.07828125 -0.23507813 0.5471875 0 0 Z " fill="#1E1E20" transform="translate(215,150)"/>
<path d="M0 0 C0.33 0 0.66 0 1 0 C1.2358396 5.77807024 0.86783046 10.51324804 -1 16 C-1.33 16 -1.66 16 -2 16 C-2.05423638 14.08364783 -2.09289963 12.16685075 -2.125 10.25 C-2.14820312 9.18265625 -2.17140625 8.1153125 -2.1953125 7.015625 C-2.00487687 4.07529894 -1.52670104 2.47638122 0 0 Z " fill="#1E1D20" transform="translate(94,90)"/>
<path d="M0 0 C0.33 0 0.66 0 1 0 C1.33 4.62 1.66 9.24 2 14 C1.01 13.67 0.02 13.34 -1 13 C-1.33 11.35 -1.66 9.7 -2 8 C-1.67 8 -1.34 8 -1 8 C-0.67 5.36 -0.34 2.72 0 0 Z " fill="#181818" transform="translate(131,269)"/>
<path d="M0 0 C4.875 4.75 4.875 4.75 6 7 C5.34 7.66 4.68 8.32 4 9 C0.06153846 5.67692308 0.06153846 5.67692308 -0.25 2.25 C-0.1675 1.5075 -0.085 0.765 0 0 Z " fill="#1B1B1B" transform="translate(138,165)"/>
<path d="M0 0 C0 1.65 0 3.3 0 5 C0.66 5 1.32 5 2 5 C2 5.99 2 6.98 2 8 C1.01 8.33 0.02 8.66 -1 9 C-1.66 6.36 -2.32 3.72 -3 1 C-1 0 -1 0 0 0 Z " fill="#191919" transform="translate(132,149)"/>
<path d="M0 0 C-1.13474948 3.40424844 -1.96811304 4.21653709 -5 6 C-5.99 5.67 -6.98 5.34 -8 5 C-3.375 0 -3.375 0 0 0 Z " fill="#0F0F11" transform="translate(175,296)"/>
<path d="M0 0 C-0.125 1.75 -0.125 1.75 -1 4 C-4.0625 6.25 -4.0625 6.25 -7 8 C-4.18918919 0 -4.18918919 0 0 0 Z " fill="#060608" transform="translate(209,264)"/>
<path d="M0 0 C7.42857143 1 7.42857143 1 11 2 C11 2.66 11 3.32 11 4 C6.94393835 3.53199289 3.53411321 3.12046792 0 1 C0 0.67 0 0.34 0 0 Z " fill="#060606" transform="translate(110,239)"/>
<path d="M0 0 C0.66 0.33 1.32 0.66 2 1 C-0.83430453 4.2542015 -2.68607774 5.5206753 -7 6 C-2.25 1.125 -2.25 1.125 0 0 Z " fill="#121212" transform="translate(218,209)"/>
<path d="M0 0 C0.6875 1.75 0.6875 1.75 1 4 C-0.25 6.25 -0.25 6.25 -2 8 C-2.99 8 -3.98 8 -5 8 C-5 7.34 -5 6.68 -5 6 C-4.34 6 -3.68 6 -3 6 C-2.690625 5.195625 -2.38125 4.39125 -2.0625 3.5625 C-1 1 -1 1 0 0 Z " fill="#0C0C0D" transform="translate(212,159)"/>
<path d="M0 0 C0.66 0 1.32 0 2 0 C3.32 2.64 4.64 5.28 6 8 C5.01 8.33 4.02 8.66 3 9 C0 3.375 0 3.375 0 0 Z " fill="#101010" transform="translate(11,130)"/>
<path d="M0 0 C2.0625 0.4375 2.0625 0.4375 4 1 C3.67 1.66 3.34 2.32 3 3 C5.97 3 8.94 3 12 3 C12 3.33 12 3.66 12 4 C10.39667209 4.08121924 8.79215974 4.13929134 7.1875 4.1875 C6.29417969 4.22230469 5.40085938 4.25710938 4.48046875 4.29296875 C1.58352485 3.95081002 0.77444972 3.24606427 -1 1 C-0.67 0.67 -0.34 0.34 0 0 Z " fill="#373737" transform="translate(144,295)"/>
<path d="M0 0 C0.99 0.33 1.98 0.66 3 1 C1.38405168 3.04119788 -0.2856382 5.04072937 -2 7 C-2.66 7 -3.32 7 -4 7 C-3.43628586 3.73045798 -2.50037734 2.17424117 0 0 Z " fill="#090909" transform="translate(143,88)"/>
<path d="M0 0 C2.89932357 2.39509338 3.50168276 4.31245243 4 8 C3.01 8.495 3.01 8.495 2 9 C-0.29013653 5.5647952 -0.17842973 4.014669 0 0 Z " fill="#1E1E1F" transform="translate(87,74)"/>
<path d="M0 0 C0.33 0 0.66 0 1 0 C1.144375 0.78375 1.28875 1.5675 1.4375 2.375 C1.87798925 4.96421018 1.87798925 4.96421018 3 7 C2.67 7.66 2.34 8.32 2 9 C0.68 9.33 -0.64 9.66 -2 10 C-1.34 6.7 -0.68 3.4 0 0 Z " fill="#1A1A1A" transform="translate(254,161)"/>
<path d="M0 0 C1.5 1.0625 1.5 1.0625 3 3 C3.1875 6.6875 3.1875 6.6875 3 10 C-0.00617269 6.99382731 0.40414684 4.17618402 0 0 Z " fill="#090909" transform="translate(215,128)"/>
<path d="M0 0 C1.32 1.65 2.64 3.3 4 5 C3.67 5.66 3.34 6.32 3 7 C2.01 7 1.02 7 0 7 C-1.125 2.25 -1.125 2.25 0 0 Z " fill="#222222" transform="translate(213,122)"/>
<path d="M0 0 C0.66 0.33 1.32 0.66 2 1 C0.02 3.97 0.02 3.97 -2 7 C-3.32 6.34 -4.64 5.68 -6 5 C-4.02 3.35 -2.04 1.7 0 0 Z " fill="#232323" transform="translate(22,85)"/>
<path d="M0 0 C0.33 0.99 0.66 1.98 1 3 C-1.3125 3.625 -1.3125 3.625 -4 4 C-4.99 3.34 -5.98 2.68 -7 2 C-4.35261084 0.5393715 -3.10551666 0 0 0 Z " fill="#212121" transform="translate(43,74)"/>
<path d="M0 0 C1.65 0.33 3.3 0.66 5 1 C2.94766315 3.2477975 1.99332739 4.0022242 -1 5 C-1.33 4.01 -1.66 3.02 -2 2 C-1.34 2 -0.68 2 0 2 C0 1.34 0 0.68 0 0 Z " fill="#18181A" transform="translate(71,25)"/>
<path d="M0 0 C0.66 0.33 1.32 0.66 2 1 C2 3.31 2 5.62 2 8 C1.67 7.34 1.34 6.68 1 6 C0.34 6 -0.32 6 -1 6 C-1.042721 4.33388095 -1.04063832 2.66617115 -1 1 C-0.67 0.67 -0.34 0.34 0 0 Z " fill="#1E1E20" transform="translate(148,326)"/>
<path d="M0 0 C0 0.66 0 1.32 0 2 C-4.455 2.495 -4.455 2.495 -9 3 C-7.14340032 -0.71319936 -3.69365381 -0.09982848 0 0 Z " fill="#050505" transform="translate(197,218)"/>
<path d="M0 0 C2.31 0 4.62 0 7 0 C7.33 0.99 7.66 1.98 8 3 C5.6568787 2.74438677 3.32156597 2.40729228 1 2 C0.67 1.34 0.34 0.68 0 0 Z " fill="#080909" transform="translate(81,210)"/>
<path d="M0 0 C0 0.66 0 1.32 0 2 C-2.70879335 3.35439668 -5.00933268 3.06501451 -8 3 C-8 2.34 -8 1.68 -8 1 C-5.10765685 0.17361624 -3.11257569 0 0 0 Z " fill="#0A0A0A" transform="translate(190,180)"/>
<path d="M0 0 C0.66 0 1.32 0 2 0 C1.67 4.29 1.34 8.58 1 13 C0.67 13 0.34 13 0 13 C-0.19397476 11.02145742 -0.38001321 9.0421352 -0.5625 7.0625 C-0.66691406 5.96035156 -0.77132812 4.85820312 -0.87890625 3.72265625 C-0.91886719 2.82417969 -0.95882812 1.92570313 -1 1 C-0.67 0.67 -0.34 0.34 0 0 Z " fill="#440C29" transform="translate(99,169)"/>
<path d="M0 0 C0.33 0.66 0.66 1.32 1 2 C0.22265625 3.7265625 0.22265625 3.7265625 -0.9375 5.625 C-1.618125 6.73875 -2.29875 7.8525 -3 9 C-4 6 -4 6 -3.1875 3.375 C-2 1 -2 1 0 0 Z " fill="#0A0A0A" transform="translate(157,311)"/>
<path d="M0 0 C-0.99 0.33 -1.98 0.66 -3 1 C-2.67 1.66 -2.34 2.32 -2 3 C-4.64 2.67 -7.28 2.34 -10 2 C-3.75 -1.125 -3.75 -1.125 0 0 Z " fill="#121113" transform="translate(204,284)"/>
<path d="M0 0 C0 0.99 0 1.98 0 3 C-1.65 3.66 -3.3 4.32 -5 5 C-5 3.68 -5 2.36 -5 1 C-3 0 -3 0 0 0 Z " fill="#1B1B1B" transform="translate(51,246)"/>
</svg>
